<svg width="18" height="24" viewBox="0 0 18 24" fill="none" xmlns="http://www.w3.org/2000/svg">
<path d="M8.13281 0.0700912C5.19375 0.482592 2.92969 2.82634 2.625 5.77009C2.60156 6.03259 2.57812 7.06384 2.57812 8.06697V9.89041H1.88906C1.26094 9.89041 1.17188 9.89978 0.95625 10.0029C0.684375 10.1295 0.39375 10.4435 0.328125 10.6826C0.3 10.7904 0.28125 13.0732 0.28125 16.9685V23.0857L0.39375 23.3248C0.454688 23.456 0.585938 23.6295 0.684375 23.7092C1.05938 24.0185 0.492188 23.9998 9 23.9998C17.5078 23.9998 16.9406 24.0185 17.3156 23.7092C17.4141 23.6295 17.5453 23.456 17.6063 23.3248L17.7188 23.0857V16.9685C17.7188 13.0732 17.7 10.7904 17.6719 10.6826C17.6063 10.4435 17.3156 10.1295 17.0438 10.0029C16.8281 9.89978 16.7391 9.89041 16.1156 9.89041H15.4219V8.06697C15.4219 7.06384 15.3984 6.03259 15.375 5.77009C15.0047 2.16541 11.7047 -0.431471 8.13281 0.0700912ZM9.83438 2.4654C11.1703 2.73728 12.3094 3.72634 12.7969 5.03415C13.0125 5.60134 13.0313 5.82166 13.0313 7.90759V9.89041H9H4.96875V7.90759C4.96875 5.82166 4.9875 5.60134 5.20312 5.03415C5.68594 3.74041 6.81563 2.75134 8.13281 2.47009C8.57344 2.37165 9.38438 2.37165 9.83438 2.4654Z" fill="#555555"/>
</svg>
