<svg width="563" height="360" viewBox="0 0 563 360" fill="none" xmlns="http://www.w3.org/2000/svg">
<line x1="43" y1="39.5" x2="563" y2="39.5" stroke="#ECECFC"/>
<line x1="42" y1="199.5" x2="562" y2="199.5" stroke="#ECECFC"/>
<line x1="42" y1="79.5" x2="562" y2="79.5" stroke="#ECECFC"/>
<line x1="42" y1="239.5" x2="562" y2="239.5" stroke="#ECECFC"/>
<line x1="42" y1="119.5" x2="562" y2="119.5" stroke="#ECECFC"/>
<line x1="42" y1="279.5" x2="562" y2="279.5" stroke="#ECECFC"/>
<line x1="42" y1="159.5" x2="562" y2="159.5" stroke="#ECECFC"/>
<line x1="42" y1="319.5" x2="562" y2="319.5" stroke="#ECECFC"/>
<path d="M0.902 353.922L1.798 353.866C2.246 353.829 2.58667 353.679 2.82 353.418C3.05333 353.147 3.17 352.774 3.17 352.298V345.13H4.626V352.312C4.626 353.152 4.402 353.805 3.954 354.272C3.51533 354.739 2.87133 354.995 2.022 355.042L1 355.112L0.902 353.922ZM9.60748 348C10.5222 348 11.1988 348.229 11.6375 348.686C12.0855 349.143 12.3095 349.839 12.3095 350.772V355H10.9515V353.866C10.7742 354.267 10.5082 354.575 10.1535 354.79C9.80815 354.995 9.40215 355.098 8.93548 355.098C8.48748 355.098 8.07682 355.009 7.70348 354.832C7.33015 354.645 7.03615 354.389 6.82148 354.062C6.61615 353.735 6.51348 353.371 6.51348 352.97C6.51348 352.475 6.63948 352.088 6.89148 351.808C7.15282 351.519 7.57748 351.313 8.16548 351.192C8.76282 351.071 9.57948 351.01 10.6155 351.01H10.9375V350.604C10.9375 350.081 10.8255 349.703 10.6015 349.47C10.3868 349.237 10.0322 349.12 9.53748 349.12C8.76282 349.12 7.98815 349.358 7.21348 349.834L6.79348 348.84C7.15748 348.588 7.59615 348.387 8.10948 348.238C8.63215 348.079 9.13148 348 9.60748 348ZM9.18748 354.048C9.70082 354.048 10.1208 353.875 10.4475 353.53C10.7742 353.175 10.9375 352.723 10.9375 352.172V351.808H10.6855C9.95748 351.808 9.39748 351.841 9.00548 351.906C8.61348 351.971 8.33348 352.083 8.16548 352.242C7.99748 352.391 7.91348 352.611 7.91348 352.9C7.91348 353.227 8.03015 353.502 8.26348 353.726C8.50615 353.941 8.81415 354.048 9.18748 354.048ZM17.9257 348C19.559 348 20.3757 348.919 20.3757 350.758V355H18.9617V350.828C18.9617 350.249 18.845 349.825 18.6117 349.554C18.3877 349.283 18.033 349.148 17.5477 349.148C16.9783 349.148 16.521 349.325 16.1757 349.68C15.8303 350.035 15.6577 350.511 15.6577 351.108V355H14.2437V348.168H15.6297V349.26C15.8537 348.849 16.1663 348.537 16.5677 348.322C16.969 348.107 17.4217 348 17.9257 348ZM28.3021 348.168V355H26.9301V353.894C26.7154 354.286 26.4167 354.585 26.0341 354.79C25.6607 354.995 25.2407 355.098 24.7741 355.098C23.1127 355.098 22.2821 354.183 22.2821 352.354V348.168H23.6961V352.34C23.6961 352.891 23.8081 353.297 24.0321 353.558C24.2561 353.819 24.6014 353.95 25.0681 353.95C25.6187 353.95 26.0574 353.773 26.3841 353.418C26.7201 353.063 26.8881 352.592 26.8881 352.004V348.168H28.3021ZM33.1368 348C34.0514 348 34.7281 348.229 35.1668 348.686C35.6148 349.143 35.8388 349.839 35.8388 350.772V355H34.4808V353.866C34.3034 354.267 34.0374 354.575 33.6828 354.79C33.3374 354.995 32.9314 355.098 32.4648 355.098C32.0168 355.098 31.6061 355.009 31.2328 354.832C30.8594 354.645 30.5654 354.389 30.3508 354.062C30.1454 353.735 30.0428 353.371 30.0428 352.97C30.0428 352.475 30.1688 352.088 30.4208 351.808C30.6821 351.519 31.1068 351.313 31.6948 351.192C32.2921 351.071 33.1088 351.01 34.1448 351.01H34.4668V350.604C34.4668 350.081 34.3548 349.703 34.1308 349.47C33.9161 349.237 33.5614 349.12 33.0668 349.12C32.2921 349.12 31.5174 349.358 30.7428 349.834L30.3228 348.84C30.6868 348.588 31.1254 348.387 31.6388 348.238C32.1614 348.079 32.6608 348 33.1368 348ZM32.7168 354.048C33.2301 354.048 33.6501 353.875 33.9768 353.53C34.3034 353.175 34.4668 352.723 34.4668 352.172V351.808H34.2148C33.4868 351.808 32.9268 351.841 32.5348 351.906C32.1428 351.971 31.8628 352.083 31.6948 352.242C31.5268 352.391 31.4428 352.611 31.4428 352.9C31.4428 353.227 31.5594 353.502 31.7928 353.726C32.0354 353.941 32.3434 354.048 32.7168 354.048ZM41.931 349.19L41.077 349.274C40.405 349.339 39.9196 349.545 39.621 349.89C39.3316 350.235 39.187 350.674 39.187 351.206V355H37.773V348.168H39.145V349.358C39.509 348.555 40.251 348.112 41.371 348.028L41.833 348L41.931 349.19ZM48.1678 348.182H49.5818L45.5078 357.52H44.0798L45.2698 354.832L42.3998 348.182H43.8838L46.0118 353.404L48.1678 348.182Z" fill="black"/>
<path d="M21.5 14V5.334H18.168V4.13H26.302V5.334H22.956V14H21.5ZM27.4566 14V7.168H28.8706V14H27.4566ZM27.3586 4.116H28.9826V5.586H27.3586V4.116ZM38.6872 7C40.2179 7 40.9832 7.91933 40.9832 9.758V14H39.5692V9.814C39.5692 9.23533 39.4665 8.81533 39.2612 8.554C39.0652 8.28333 38.7432 8.148 38.2952 8.148C37.7819 8.148 37.3759 8.32533 37.0772 8.68C36.7785 9.03467 36.6292 9.52 36.6292 10.136V14H35.2152V9.814C35.2152 9.23533 35.1125 8.81533 34.9072 8.554C34.7019 8.28333 34.3799 8.148 33.9412 8.148C33.4185 8.148 33.0079 8.32533 32.7092 8.68C32.4105 9.03467 32.2612 9.52 32.2612 10.136V14H30.8472V7.168H32.2332V8.204C32.4479 7.82133 32.7372 7.52733 33.1012 7.322C33.4652 7.10733 33.8805 7 34.3472 7C35.4019 7 36.0879 7.43867 36.4052 8.316C36.6199 7.90533 36.9279 7.58333 37.3292 7.35C37.7305 7.11667 38.1832 7 38.6872 7ZM48.7715 10.822H43.9415C44.0441 12.2687 44.7628 12.992 46.0975 12.992C46.8815 12.992 47.5908 12.7353 48.2255 12.222L48.6595 13.216C48.3421 13.4867 47.9501 13.7013 47.4835 13.86C47.0168 14.0187 46.5408 14.098 46.0555 14.098C44.9635 14.098 44.1001 13.7853 43.4655 13.16C42.8401 12.5347 42.5275 11.6713 42.5275 10.57C42.5275 9.87 42.6628 9.24933 42.9335 8.708C43.2135 8.16667 43.6008 7.74667 44.0955 7.448C44.5995 7.14933 45.1688 7 45.8035 7C46.7275 7 47.4508 7.29867 47.9735 7.896C48.5055 8.49333 48.7715 9.31933 48.7715 10.374V10.822ZM45.8315 8.036C45.2901 8.036 44.8561 8.20867 44.5295 8.554C44.2121 8.89 44.0208 9.37533 43.9555 10.01H47.5535C47.5255 9.37533 47.3621 8.89 47.0635 8.554C46.7741 8.20867 46.3635 8.036 45.8315 8.036Z" fill="black"/>
<path d="M69.6 352.096C68.632 352.096 67.896 351.728 67.392 350.992C66.888 350.256 66.636 349.184 66.636 347.776C66.636 346.36 66.888 345.284 67.392 344.548C67.896 343.812 68.632 343.444 69.6 343.444C70.568 343.444 71.304 343.812 71.808 344.548C72.312 345.276 72.564 346.348 72.564 347.764C72.564 349.18 72.312 350.256 71.808 350.992C71.304 351.728 70.568 352.096 69.6 352.096ZM69.6 351.268C70.272 351.268 70.768 350.984 71.088 350.416C71.408 349.848 71.568 348.964 71.568 347.764C71.568 346.556 71.408 345.676 71.088 345.124C70.776 344.564 70.28 344.284 69.6 344.284C68.928 344.284 68.432 344.564 68.112 345.124C67.792 345.684 67.632 346.564 67.632 347.764C67.632 348.964 67.792 349.848 68.112 350.416C68.432 350.984 68.928 351.268 69.6 351.268ZM77.5993 351.172H79.4593V352H74.7553V351.172H76.6153V344.764L75.1273 345.7L74.6713 344.944L76.8913 343.54H77.5993V351.172Z" fill="#A0B1CC"/>
<path d="M17.404 323.172H19.264V324H14.56V323.172H16.42V316.764L14.932 317.7L14.476 316.944L16.696 315.54H17.404V323.172ZM26.6633 323.172V324H21.2153V323.256L24.1793 319.992C24.5793 319.544 24.8673 319.144 25.0433 318.792C25.2273 318.432 25.3193 318.072 25.3193 317.712C25.3193 317.248 25.1833 316.892 24.9113 316.644C24.6393 316.396 24.2553 316.272 23.7593 316.272C22.9433 316.272 22.1433 316.596 21.3593 317.244L20.9873 316.488C21.3233 316.168 21.7433 315.916 22.2473 315.732C22.7593 315.54 23.2713 315.444 23.7833 315.444C24.5593 315.444 25.1713 315.644 25.6193 316.044C26.0753 316.444 26.3033 316.984 26.3033 317.664C26.3033 318.152 26.1913 318.62 25.9673 319.068C25.7513 319.516 25.3913 320.016 24.8873 320.568L22.4873 323.172H26.6633ZM37.9964 324L37.0604 321.828H32.6444L31.7084 324H30.7004L34.4204 315.54H35.2724L38.9924 324H37.9964ZM32.9924 321.012H36.7124L34.8524 316.68L32.9924 321.012ZM47.4351 315.54H48.2391V324H47.3391L47.3511 317.448L44.6031 322.656H43.9071L41.1471 317.496L41.1591 324H40.2471V315.54H41.0631L44.2671 321.672L47.4351 315.54Z" fill="#A0B1CC"/>
<path d="M26.468 283.172V284H21.02V283.256L23.984 279.992C24.384 279.544 24.672 279.144 24.848 278.792C25.032 278.432 25.124 278.072 25.124 277.712C25.124 277.248 24.988 276.892 24.716 276.644C24.444 276.396 24.06 276.272 23.564 276.272C22.748 276.272 21.948 276.596 21.164 277.244L20.792 276.488C21.128 276.168 21.548 275.916 22.052 275.732C22.564 275.54 23.076 275.444 23.588 275.444C24.364 275.444 24.976 275.644 25.424 276.044C25.88 276.444 26.108 276.984 26.108 277.664C26.108 278.152 25.996 278.62 25.772 279.068C25.556 279.516 25.196 280.016 24.692 280.568L22.292 283.172H26.468ZM37.8011 284L36.8651 281.828H32.4491L31.5131 284H30.5051L34.2251 275.54H35.0771L38.7971 284H37.8011ZM32.7971 281.012H36.5171L34.6571 276.68L32.7971 281.012ZM47.2398 275.54H48.0438V284H47.1438L47.1558 277.448L44.4078 282.656H43.7118L40.9518 277.496L40.9638 284H40.0518V275.54H40.8678L44.0718 281.672L47.2398 275.54Z" fill="#A0B1CC"/>
<path d="M26.768 241.348V242.164H25.496V244H24.524V242.164H20.612V241.42L24.692 235.54H25.496V241.348H26.768ZM21.632 241.348H24.524V237.184L21.632 241.348ZM37.8011 244L36.8651 241.828H32.4491L31.5131 244H30.5051L34.2251 235.54H35.0771L38.7971 244H37.8011ZM32.7971 241.012H36.5171L34.6571 236.68L32.7971 241.012ZM47.2398 235.54H48.0438V244H47.1438L47.1558 237.448L44.4078 242.656H43.7118L40.9518 237.496L40.9638 244H40.0518V235.54H40.8678L44.0718 241.672L47.2398 235.54Z" fill="#A0B1CC"/>
<path d="M23.96 198.684C24.472 198.684 24.928 198.796 25.328 199.02C25.728 199.244 26.04 199.56 26.264 199.968C26.488 200.376 26.6 200.844 26.6 201.372C26.6 201.892 26.484 202.36 26.252 202.776C26.02 203.192 25.696 203.516 25.28 203.748C24.864 203.98 24.396 204.096 23.876 204.096C22.852 204.096 22.06 203.74 21.5 203.028C20.948 202.316 20.672 201.3 20.672 199.98C20.672 199.028 20.8 198.212 21.056 197.532C21.32 196.852 21.696 196.336 22.184 195.984C22.672 195.624 23.256 195.444 23.936 195.444C24.424 195.444 24.9 195.536 25.364 195.72C25.828 195.896 26.236 196.152 26.588 196.488L26.216 197.244C25.816 196.908 25.432 196.664 25.064 196.512C24.704 196.352 24.336 196.272 23.96 196.272C23.232 196.272 22.664 196.596 22.256 197.244C21.856 197.884 21.656 198.792 21.656 199.968V200.148C21.84 199.7 22.136 199.344 22.544 199.08C22.952 198.816 23.424 198.684 23.96 198.684ZM23.828 203.268C24.372 203.268 24.808 203.096 25.136 202.752C25.464 202.408 25.628 201.952 25.628 201.384C25.628 200.824 25.46 200.372 25.124 200.028C24.796 199.684 24.36 199.512 23.816 199.512C23.264 199.512 22.812 199.688 22.46 200.04C22.116 200.384 21.944 200.832 21.944 201.384C21.944 201.944 22.116 202.4 22.46 202.752C22.812 203.096 23.268 203.268 23.828 203.268ZM37.7893 204L36.8533 201.828H32.4373L31.5013 204H30.4933L34.2133 195.54H35.0653L38.7853 204H37.7893ZM32.7853 201.012H36.5053L34.6453 196.68L32.7853 201.012ZM47.2281 195.54H48.0321V204H47.1321L47.1441 197.448L44.3961 202.656H43.7001L40.9401 197.496L40.9521 204H40.0401V195.54H40.8561L44.0601 201.672L47.2281 195.54Z" fill="#A0B1CC"/>
<path d="M25.064 159.656C25.56 159.808 25.944 160.068 26.216 160.436C26.496 160.804 26.636 161.244 26.636 161.756C26.636 162.484 26.372 163.056 25.844 163.472C25.316 163.88 24.568 164.084 23.6 164.084C22.632 164.084 21.884 163.88 21.356 163.472C20.828 163.056 20.564 162.484 20.564 161.756C20.564 161.236 20.704 160.792 20.984 160.424C21.264 160.056 21.652 159.8 22.148 159.656C21.724 159.496 21.388 159.244 21.14 158.9C20.892 158.556 20.768 158.152 20.768 157.688C20.768 157 21.016 156.456 21.512 156.056C22.016 155.648 22.712 155.444 23.6 155.444C24.488 155.444 25.18 155.648 25.676 156.056C26.18 156.456 26.432 157 26.432 157.688C26.432 158.152 26.308 158.56 26.06 158.912C25.812 159.256 25.48 159.504 25.064 159.656ZM21.74 157.76C21.74 158.256 21.896 158.636 22.208 158.9C22.528 159.164 22.992 159.296 23.6 159.296C24.208 159.296 24.668 159.164 24.98 158.9C25.3 158.636 25.46 158.256 25.46 157.76C25.46 157.288 25.3 156.92 24.98 156.656C24.668 156.392 24.208 156.26 23.6 156.26C22.992 156.26 22.528 156.392 22.208 156.656C21.896 156.92 21.74 157.288 21.74 157.76ZM23.6 163.268C24.976 163.268 25.664 162.744 25.664 161.696C25.664 160.648 24.976 160.124 23.6 160.124C22.224 160.124 21.536 160.648 21.536 161.696C21.536 162.744 22.224 163.268 23.6 163.268ZM37.8011 164L36.8651 161.828H32.4491L31.5131 164H30.5051L34.2251 155.54H35.0771L38.7971 164H37.8011ZM32.7971 161.012H36.5171L34.6571 156.68L32.7971 161.012ZM47.2398 155.54H48.0438V164H47.1438L47.1558 157.448L44.4078 162.656H43.7118L40.9518 157.496L40.9638 164H40.0518V155.54H40.8678L44.0718 161.672L47.2398 155.54Z" fill="#A0B1CC"/>
<path d="M17.404 123.172H19.264V124H14.56V123.172H16.42V116.764L14.932 117.7L14.476 116.944L16.696 115.54H17.404V123.172ZM23.7953 124.096C22.8273 124.096 22.0913 123.728 21.5873 122.992C21.0833 122.256 20.8313 121.184 20.8313 119.776C20.8313 118.36 21.0833 117.284 21.5873 116.548C22.0913 115.812 22.8273 115.444 23.7953 115.444C24.7633 115.444 25.4993 115.812 26.0033 116.548C26.5073 117.276 26.7593 118.348 26.7593 119.764C26.7593 121.18 26.5073 122.256 26.0033 122.992C25.4993 123.728 24.7633 124.096 23.7953 124.096ZM23.7953 123.268C24.4673 123.268 24.9633 122.984 25.2833 122.416C25.6033 121.848 25.7633 120.964 25.7633 119.764C25.7633 118.556 25.6033 117.676 25.2833 117.124C24.9713 116.564 24.4753 116.284 23.7953 116.284C23.1233 116.284 22.6273 116.564 22.3073 117.124C21.9873 117.684 21.8273 118.564 21.8273 119.764C21.8273 120.964 21.9873 121.848 22.3073 122.416C22.6273 122.984 23.1233 123.268 23.7953 123.268ZM37.9964 124L37.0604 121.828H32.6444L31.7084 124H30.7004L34.4204 115.54H35.2724L38.9924 124H37.9964ZM32.9924 121.012H36.7124L34.8524 116.68L32.9924 121.012ZM47.4351 115.54H48.2391V124H47.3391L47.3511 117.448L44.6031 122.656H43.9071L41.1471 117.496L41.1591 124H40.2471V115.54H41.0631L44.2671 121.672L47.4351 115.54Z" fill="#A0B1CC"/>
<path d="M18.404 83.172H20.264V84H15.56V83.172H17.42V76.764L15.932 77.7L15.476 76.944L17.696 75.54H18.404V83.172ZM27.6633 83.172V84H22.2153V83.256L25.1793 79.992C25.5793 79.544 25.8673 79.144 26.0433 78.792C26.2273 78.432 26.3193 78.072 26.3193 77.712C26.3193 77.248 26.1833 76.892 25.9113 76.644C25.6393 76.396 25.2553 76.272 24.7593 76.272C23.9433 76.272 23.1433 76.596 22.3593 77.244L21.9873 76.488C22.3233 76.168 22.7433 75.916 23.2473 75.732C23.7593 75.54 24.2713 75.444 24.7833 75.444C25.5593 75.444 26.1713 75.644 26.6193 76.044C27.0753 76.444 27.3033 76.984 27.3033 77.664C27.3033 78.152 27.1913 78.62 26.9673 79.068C26.7513 79.516 26.3913 80.016 25.8873 80.568L23.4873 83.172H27.6633ZM32.5284 75.54H35.8764C36.7644 75.54 37.4524 75.756 37.9404 76.188C38.4364 76.62 38.6844 77.232 38.6844 78.024C38.6844 78.816 38.4364 79.432 37.9404 79.872C37.4444 80.312 36.7564 80.532 35.8764 80.532H33.5124V84H32.5284V75.54ZM35.7804 79.716C37.0684 79.716 37.7124 79.152 37.7124 78.024C37.7124 76.912 37.0684 76.356 35.7804 76.356H33.5124V79.716H35.7804ZM47.4508 75.54H48.2548V84H47.3548L47.3668 77.448L44.6188 82.656H43.9228L41.1628 77.496L41.1748 84H40.2628V75.54H41.0788L44.2828 81.672L47.4508 75.54Z" fill="#A0B1CC"/>
<path d="M27.468 43.172V44H22.02V43.256L24.984 39.992C25.384 39.544 25.672 39.144 25.848 38.792C26.032 38.432 26.124 38.072 26.124 37.712C26.124 37.248 25.988 36.892 25.716 36.644C25.444 36.396 25.06 36.272 24.564 36.272C23.748 36.272 22.948 36.596 22.164 37.244L21.792 36.488C22.128 36.168 22.548 35.916 23.052 35.732C23.564 35.54 24.076 35.444 24.588 35.444C25.364 35.444 25.976 35.644 26.424 36.044C26.88 36.444 27.108 36.984 27.108 37.664C27.108 38.152 26.996 38.62 26.772 39.068C26.556 39.516 26.196 40.016 25.692 40.568L23.292 43.172H27.468ZM32.3331 35.54H35.6811C36.5691 35.54 37.2571 35.756 37.7451 36.188C38.2411 36.62 38.4891 37.232 38.4891 38.024C38.4891 38.816 38.2411 39.432 37.7451 39.872C37.2491 40.312 36.5611 40.532 35.6811 40.532H33.3171V44H32.3331V35.54ZM35.5851 39.716C36.8731 39.716 37.5171 39.152 37.5171 38.024C37.5171 36.912 36.8731 36.356 35.5851 36.356H33.3171V39.716H35.5851ZM47.2554 35.54H48.0594V44H47.1594L47.1714 37.448L44.4234 42.656H43.7274L40.9674 37.496L40.9794 44H40.0674V35.54H40.8834L44.0874 41.672L47.2554 35.54Z" fill="#A0B1CC"/>
<path d="M120.6 352.096C119.632 352.096 118.896 351.728 118.392 350.992C117.888 350.256 117.636 349.184 117.636 347.776C117.636 346.36 117.888 345.284 118.392 344.548C118.896 343.812 119.632 343.444 120.6 343.444C121.568 343.444 122.304 343.812 122.808 344.548C123.312 345.276 123.564 346.348 123.564 347.764C123.564 349.18 123.312 350.256 122.808 350.992C122.304 351.728 121.568 352.096 120.6 352.096ZM120.6 351.268C121.272 351.268 121.768 350.984 122.088 350.416C122.408 349.848 122.568 348.964 122.568 347.764C122.568 346.556 122.408 345.676 122.088 345.124C121.776 344.564 121.28 344.284 120.6 344.284C119.928 344.284 119.432 344.564 119.112 345.124C118.792 345.684 118.632 346.564 118.632 347.764C118.632 348.964 118.792 349.848 119.112 350.416C119.432 350.984 119.928 351.268 120.6 351.268ZM130.663 351.172V352H125.215V351.256L128.179 347.992C128.579 347.544 128.867 347.144 129.043 346.792C129.227 346.432 129.319 346.072 129.319 345.712C129.319 345.248 129.183 344.892 128.911 344.644C128.639 344.396 128.255 344.272 127.759 344.272C126.943 344.272 126.143 344.596 125.359 345.244L124.987 344.488C125.323 344.168 125.743 343.916 126.247 343.732C126.759 343.54 127.271 343.444 127.783 343.444C128.559 343.444 129.171 343.644 129.619 344.044C130.075 344.444 130.303 344.984 130.303 345.664C130.303 346.152 130.191 346.62 129.967 347.068C129.751 347.516 129.391 348.016 128.887 348.568L126.487 351.172H130.663Z" fill="#A0B1CC"/>
<path d="M171.6 352.096C170.632 352.096 169.896 351.728 169.392 350.992C168.888 350.256 168.636 349.184 168.636 347.776C168.636 346.36 168.888 345.284 169.392 344.548C169.896 343.812 170.632 343.444 171.6 343.444C172.568 343.444 173.304 343.812 173.808 344.548C174.312 345.276 174.564 346.348 174.564 347.764C174.564 349.18 174.312 350.256 173.808 350.992C173.304 351.728 172.568 352.096 171.6 352.096ZM171.6 351.268C172.272 351.268 172.768 350.984 173.088 350.416C173.408 349.848 173.568 348.964 173.568 347.764C173.568 346.556 173.408 345.676 173.088 345.124C172.776 344.564 172.28 344.284 171.6 344.284C170.928 344.284 170.432 344.564 170.112 345.124C169.792 345.684 169.632 346.564 169.632 347.764C169.632 348.964 169.792 349.848 170.112 350.416C170.432 350.984 170.928 351.268 171.6 351.268ZM179.959 347.656C180.455 347.8 180.835 348.048 181.099 348.4C181.363 348.744 181.495 349.18 181.495 349.708C181.495 350.444 181.243 351.024 180.739 351.448C180.243 351.872 179.567 352.084 178.711 352.084C178.167 352.084 177.643 351.992 177.139 351.808C176.635 351.624 176.211 351.368 175.867 351.04L176.239 350.284C177.007 350.932 177.823 351.256 178.687 351.256C179.287 351.256 179.743 351.124 180.055 350.86C180.367 350.588 180.523 350.192 180.523 349.672C180.523 348.64 179.875 348.124 178.579 348.124H177.607V347.296H178.387C179.011 347.296 179.491 347.16 179.827 346.888C180.163 346.608 180.331 346.208 180.331 345.688C180.331 345.232 180.195 344.884 179.923 344.644C179.651 344.396 179.263 344.272 178.759 344.272C177.943 344.272 177.143 344.596 176.359 345.244L175.987 344.488C176.331 344.16 176.751 343.904 177.247 343.72C177.743 343.536 178.259 343.444 178.795 343.444C179.563 343.444 180.171 343.64 180.619 344.032C181.075 344.416 181.303 344.936 181.303 345.592C181.303 346.08 181.183 346.508 180.943 346.876C180.711 347.236 180.383 347.496 179.959 347.656Z" fill="#A0B1CC"/>
<path d="M222.6 352.096C221.632 352.096 220.896 351.728 220.392 350.992C219.888 350.256 219.636 349.184 219.636 347.776C219.636 346.36 219.888 345.284 220.392 344.548C220.896 343.812 221.632 343.444 222.6 343.444C223.568 343.444 224.304 343.812 224.808 344.548C225.312 345.276 225.564 346.348 225.564 347.764C225.564 349.18 225.312 350.256 224.808 350.992C224.304 351.728 223.568 352.096 222.6 352.096ZM222.6 351.268C223.272 351.268 223.768 350.984 224.088 350.416C224.408 349.848 224.568 348.964 224.568 347.764C224.568 346.556 224.408 345.676 224.088 345.124C223.776 344.564 223.28 344.284 222.6 344.284C221.928 344.284 221.432 344.564 221.112 345.124C220.792 345.684 220.632 346.564 220.632 347.764C220.632 348.964 220.792 349.848 221.112 350.416C221.432 350.984 221.928 351.268 222.6 351.268ZM232.963 349.348V350.164H231.691V352H230.719V350.164H226.807V349.42L230.887 343.54H231.691V349.348H232.963ZM227.827 349.348H230.719V345.184L227.827 349.348Z" fill="#A0B1CC"/>
<path d="M273.6 352.096C272.632 352.096 271.896 351.728 271.392 350.992C270.888 350.256 270.636 349.184 270.636 347.776C270.636 346.36 270.888 345.284 271.392 344.548C271.896 343.812 272.632 343.444 273.6 343.444C274.568 343.444 275.304 343.812 275.808 344.548C276.312 345.276 276.564 346.348 276.564 347.764C276.564 349.18 276.312 350.256 275.808 350.992C275.304 351.728 274.568 352.096 273.6 352.096ZM273.6 351.268C274.272 351.268 274.768 350.984 275.088 350.416C275.408 349.848 275.568 348.964 275.568 347.764C275.568 346.556 275.408 345.676 275.088 345.124C274.776 344.564 274.28 344.284 273.6 344.284C272.928 344.284 272.432 344.564 272.112 345.124C271.792 345.684 271.632 346.564 271.632 347.764C271.632 348.964 271.792 349.848 272.112 350.416C272.432 350.984 272.928 351.268 273.6 351.268ZM281.155 346.696C281.691 346.696 282.155 346.808 282.547 347.032C282.947 347.256 283.255 347.572 283.471 347.98C283.687 348.38 283.795 348.844 283.795 349.372C283.795 349.908 283.675 350.38 283.435 350.788C283.203 351.196 282.871 351.516 282.439 351.748C282.007 351.972 281.503 352.084 280.927 352.084C280.415 352.084 279.907 351.992 279.403 351.808C278.907 351.616 278.487 351.36 278.143 351.04L278.515 350.284C279.299 350.932 280.103 351.256 280.927 351.256C281.519 351.256 281.983 351.088 282.319 350.752C282.655 350.416 282.823 349.96 282.823 349.384C282.823 348.824 282.655 348.372 282.319 348.028C281.991 347.684 281.551 347.512 280.999 347.512C280.191 347.512 279.547 347.84 279.067 348.496H278.383V343.54H283.459V344.356H279.355V347.368C279.579 347.152 279.843 346.988 280.147 346.876C280.459 346.756 280.795 346.696 281.155 346.696Z" fill="#A0B1CC"/>
<path d="M324.6 352.096C323.632 352.096 322.896 351.728 322.392 350.992C321.888 350.256 321.636 349.184 321.636 347.776C321.636 346.36 321.888 345.284 322.392 344.548C322.896 343.812 323.632 343.444 324.6 343.444C325.568 343.444 326.304 343.812 326.808 344.548C327.312 345.276 327.564 346.348 327.564 347.764C327.564 349.18 327.312 350.256 326.808 350.992C326.304 351.728 325.568 352.096 324.6 352.096ZM324.6 351.268C325.272 351.268 325.768 350.984 326.088 350.416C326.408 349.848 326.568 348.964 326.568 347.764C326.568 346.556 326.408 345.676 326.088 345.124C325.776 344.564 325.28 344.284 324.6 344.284C323.928 344.284 323.432 344.564 323.112 345.124C322.792 345.684 322.632 346.564 322.632 347.764C322.632 348.964 322.792 349.848 323.112 350.416C323.432 350.984 323.928 351.268 324.6 351.268ZM332.155 346.684C332.667 346.684 333.123 346.796 333.523 347.02C333.923 347.244 334.235 347.56 334.459 347.968C334.683 348.376 334.795 348.844 334.795 349.372C334.795 349.892 334.679 350.36 334.447 350.776C334.215 351.192 333.891 351.516 333.475 351.748C333.059 351.98 332.591 352.096 332.071 352.096C331.047 352.096 330.255 351.74 329.695 351.028C329.143 350.316 328.867 349.3 328.867 347.98C328.867 347.028 328.995 346.212 329.251 345.532C329.515 344.852 329.891 344.336 330.379 343.984C330.867 343.624 331.451 343.444 332.131 343.444C332.619 343.444 333.095 343.536 333.559 343.72C334.023 343.896 334.431 344.152 334.783 344.488L334.411 345.244C334.011 344.908 333.627 344.664 333.259 344.512C332.899 344.352 332.531 344.272 332.155 344.272C331.427 344.272 330.859 344.596 330.451 345.244C330.051 345.884 329.851 346.792 329.851 347.968V348.148C330.035 347.7 330.331 347.344 330.739 347.08C331.147 346.816 331.619 346.684 332.155 346.684ZM332.023 351.268C332.567 351.268 333.003 351.096 333.331 350.752C333.659 350.408 333.823 349.952 333.823 349.384C333.823 348.824 333.655 348.372 333.319 348.028C332.991 347.684 332.555 347.512 332.011 347.512C331.459 347.512 331.007 347.688 330.655 348.04C330.311 348.384 330.139 348.832 330.139 349.384C330.139 349.944 330.311 350.4 330.655 350.752C331.007 351.096 331.463 351.268 332.023 351.268Z" fill="#A0B1CC"/>
<path d="M370.6 352.096C369.632 352.096 368.896 351.728 368.392 350.992C367.888 350.256 367.636 349.184 367.636 347.776C367.636 346.36 367.888 345.284 368.392 344.548C368.896 343.812 369.632 343.444 370.6 343.444C371.568 343.444 372.304 343.812 372.808 344.548C373.312 345.276 373.564 346.348 373.564 347.764C373.564 349.18 373.312 350.256 372.808 350.992C372.304 351.728 371.568 352.096 370.6 352.096ZM370.6 351.268C371.272 351.268 371.768 350.984 372.088 350.416C372.408 349.848 372.568 348.964 372.568 347.764C372.568 346.556 372.408 345.676 372.088 345.124C371.776 344.564 371.28 344.284 370.6 344.284C369.928 344.284 369.432 344.564 369.112 345.124C368.792 345.684 368.632 346.564 368.632 347.764C368.632 348.964 368.792 349.848 369.112 350.416C369.432 350.984 369.928 351.268 370.6 351.268ZM374.999 343.54H380.591V344.272L376.631 352H375.563L379.511 344.368H374.999V343.54Z" fill="#A0B1CC"/>
<path d="M420.6 352.096C419.632 352.096 418.896 351.728 418.392 350.992C417.888 350.256 417.636 349.184 417.636 347.776C417.636 346.36 417.888 345.284 418.392 344.548C418.896 343.812 419.632 343.444 420.6 343.444C421.568 343.444 422.304 343.812 422.808 344.548C423.312 345.276 423.564 346.348 423.564 347.764C423.564 349.18 423.312 350.256 422.808 350.992C422.304 351.728 421.568 352.096 420.6 352.096ZM420.6 351.268C421.272 351.268 421.768 350.984 422.088 350.416C422.408 349.848 422.568 348.964 422.568 347.764C422.568 346.556 422.408 345.676 422.088 345.124C421.776 344.564 421.28 344.284 420.6 344.284C419.928 344.284 419.432 344.564 419.112 345.124C418.792 345.684 418.632 346.564 418.632 347.764C418.632 348.964 418.792 349.848 419.112 350.416C419.432 350.984 419.928 351.268 420.6 351.268ZM429.259 347.656C429.755 347.808 430.139 348.068 430.411 348.436C430.691 348.804 430.831 349.244 430.831 349.756C430.831 350.484 430.567 351.056 430.039 351.472C429.511 351.88 428.763 352.084 427.795 352.084C426.827 352.084 426.079 351.88 425.551 351.472C425.023 351.056 424.759 350.484 424.759 349.756C424.759 349.236 424.899 348.792 425.179 348.424C425.459 348.056 425.847 347.8 426.343 347.656C425.919 347.496 425.583 347.244 425.335 346.9C425.087 346.556 424.963 346.152 424.963 345.688C424.963 345 425.211 344.456 425.707 344.056C426.211 343.648 426.907 343.444 427.795 343.444C428.683 343.444 429.375 343.648 429.871 344.056C430.375 344.456 430.627 345 430.627 345.688C430.627 346.152 430.503 346.56 430.255 346.912C430.007 347.256 429.675 347.504 429.259 347.656ZM425.935 345.76C425.935 346.256 426.091 346.636 426.403 346.9C426.723 347.164 427.187 347.296 427.795 347.296C428.403 347.296 428.863 347.164 429.175 346.9C429.495 346.636 429.655 346.256 429.655 345.76C429.655 345.288 429.495 344.92 429.175 344.656C428.863 344.392 428.403 344.26 427.795 344.26C427.187 344.26 426.723 344.392 426.403 344.656C426.091 344.92 425.935 345.288 425.935 345.76ZM427.795 351.268C429.171 351.268 429.859 350.744 429.859 349.696C429.859 348.648 429.171 348.124 427.795 348.124C426.419 348.124 425.731 348.648 425.731 349.696C425.731 350.744 426.419 351.268 427.795 351.268Z" fill="#A0B1CC"/>
<path d="M468.6 352.096C467.632 352.096 466.896 351.728 466.392 350.992C465.888 350.256 465.636 349.184 465.636 347.776C465.636 346.36 465.888 345.284 466.392 344.548C466.896 343.812 467.632 343.444 468.6 343.444C469.568 343.444 470.304 343.812 470.808 344.548C471.312 345.276 471.564 346.348 471.564 347.764C471.564 349.18 471.312 350.256 470.808 350.992C470.304 351.728 469.568 352.096 468.6 352.096ZM468.6 351.268C469.272 351.268 469.768 350.984 470.088 350.416C470.408 349.848 470.568 348.964 470.568 347.764C470.568 346.556 470.408 345.676 470.088 345.124C469.776 344.564 469.28 344.284 468.6 344.284C467.928 344.284 467.432 344.564 467.112 345.124C466.792 345.684 466.632 346.564 466.632 347.764C466.632 348.964 466.792 349.848 467.112 350.416C467.432 350.984 467.928 351.268 468.6 351.268ZM475.531 343.444C476.555 343.444 477.343 343.8 477.895 344.512C478.455 345.224 478.735 346.24 478.735 347.56C478.735 348.992 478.447 350.108 477.871 350.908C477.295 351.7 476.491 352.096 475.459 352.096C474.979 352.096 474.507 352.008 474.043 351.832C473.579 351.648 473.171 351.388 472.819 351.052L473.191 350.296C473.591 350.632 473.971 350.88 474.331 351.04C474.699 351.192 475.071 351.268 475.447 351.268C476.175 351.268 476.739 350.948 477.139 350.308C477.539 349.66 477.739 348.748 477.739 347.572V347.416C477.555 347.864 477.255 348.216 476.839 348.472C476.431 348.728 475.967 348.856 475.447 348.856C474.935 348.856 474.479 348.744 474.079 348.52C473.679 348.296 473.367 347.98 473.143 347.572C472.919 347.164 472.807 346.696 472.807 346.168C472.807 345.648 472.923 345.18 473.155 344.764C473.387 344.348 473.711 344.024 474.127 343.792C474.543 343.56 475.011 343.444 475.531 343.444ZM475.591 348.028C476.143 348.028 476.591 347.856 476.935 347.512C477.287 347.16 477.463 346.708 477.463 346.156C477.463 345.596 477.287 345.144 476.935 344.8C476.591 344.448 476.139 344.272 475.579 344.272C475.035 344.272 474.599 344.444 474.271 344.788C473.943 345.132 473.779 345.588 473.779 346.156C473.779 346.724 473.943 347.18 474.271 347.524C474.607 347.86 475.047 348.028 475.591 348.028Z" fill="#A0B1CC"/>
<path d="M518.404 351.172H520.264V352H515.56V351.172H517.42V344.764L515.932 345.7L515.476 344.944L517.696 343.54H518.404V351.172ZM524.795 352.096C523.827 352.096 523.091 351.728 522.587 350.992C522.083 350.256 521.831 349.184 521.831 347.776C521.831 346.36 522.083 345.284 522.587 344.548C523.091 343.812 523.827 343.444 524.795 343.444C525.763 343.444 526.499 343.812 527.003 344.548C527.507 345.276 527.759 346.348 527.759 347.764C527.759 349.18 527.507 350.256 527.003 350.992C526.499 351.728 525.763 352.096 524.795 352.096ZM524.795 351.268C525.467 351.268 525.963 350.984 526.283 350.416C526.603 349.848 526.763 348.964 526.763 347.764C526.763 346.556 526.603 345.676 526.283 345.124C525.971 344.564 525.475 344.284 524.795 344.284C524.123 344.284 523.627 344.564 523.307 345.124C522.987 345.684 522.827 346.564 522.827 347.764C522.827 348.964 522.987 349.848 523.307 350.416C523.627 350.984 524.123 351.268 524.795 351.268Z" fill="#A0B1CC"/>
<rect x="85" y="160" width="4" height="160" rx="2" fill="#0076D6"/>
<rect x="220" y="160" width="4" height="160" rx="2" fill="#0076D6"/>
<rect x="119" y="214" width="4" height="106" rx="2" fill="#0076D6"/>
<rect x="269" y="214" width="4" height="106" rx="2" fill="#0076D6"/>
<rect x="170" y="229" width="4" height="91" rx="2" fill="#0076D6"/>
<rect x="319" y="229" width="4" height="91" rx="2" fill="#0076D6"/>
<rect x="91" y="40" width="4" height="280" rx="2" fill="#EB3A7A"/>
<rect x="226" y="40" width="4" height="280" rx="2" fill="#EB3A7A"/>
<rect x="125" y="134" width="4" height="186" rx="2" fill="#EB3A7A"/>
<rect x="275" y="134" width="4" height="186" rx="2" fill="#EB3A7A"/>
<rect x="176" y="160" width="4" height="160" rx="2" fill="#EB3A7A"/>
<rect x="325" y="160" width="4" height="160" rx="2" fill="#EB3A7A"/>
<line x1="74.5" y1="320" x2="74.5" y2="328" stroke="#ECECFC"/>
<line x1="124.5" y1="320" x2="124.5" y2="328" stroke="#ECECFC"/>
<line x1="174.5" y1="320" x2="174.5" y2="328" stroke="#ECECFC"/>
<line x1="224.5" y1="320" x2="224.5" y2="328" stroke="#ECECFC"/>
<line x1="274.5" y1="320" x2="274.5" y2="328" stroke="#ECECFC"/>
<line x1="324.5" y1="320" x2="324.5" y2="328" stroke="#ECECFC"/>
<line x1="374.5" y1="320" x2="374.5" y2="328" stroke="#ECECFC"/>
<line x1="423.5" y1="320" x2="423.5" y2="328" stroke="#ECECFC"/>
<line x1="472.5" y1="320" x2="472.5" y2="328" stroke="#ECECFC"/>
<line x1="521.5" y1="320" x2="521.5" y2="328" stroke="#ECECFC"/>
<rect x="195" width="67" height="35" rx="4" fill="#EB3A7A"/>
<path d="M211.696 13V7.36H215.264V7.904H212.344V9.864H215.104V10.408H212.344V12.456H215.264V13H211.696ZM218.112 10.992L219.728 13H218.944L217.728 11.48L216.52 13H215.728L217.344 10.992L215.824 9.104H216.608L217.728 10.52L218.848 9.104H219.64L218.112 10.992ZM220.397 13V9.104H221.045V13H220.397ZM220.333 7.416H221.117V8.144H220.333V7.416ZM223.968 12.536C224.086 12.536 224.203 12.528 224.32 12.512L224.288 13.024C224.166 13.0453 224.032 13.056 223.888 13.056C223.419 13.056 223.064 12.9333 222.824 12.688C222.59 12.4427 222.472 12.1013 222.472 11.664V9.616H221.712V9.104H222.472V7.92H223.12V9.104H224.224V9.616H223.12V11.616C223.12 12.2293 223.403 12.536 223.968 12.536ZM228.493 13V7.92H226.534V7.36H231.126V7.92H229.158V13H228.493ZM231.819 13V9.104H232.467V13H231.819ZM231.755 7.416H232.539V8.144H231.755V7.416ZM238.014 9.008C238.878 9.008 239.31 9.52267 239.31 10.552V13H238.662V10.584C238.662 10.2267 238.598 9.96533 238.47 9.8C238.347 9.63467 238.147 9.552 237.87 9.552C237.545 9.552 237.289 9.66133 237.102 9.88C236.915 10.0987 236.822 10.3973 236.822 10.776V13H236.174V10.584C236.174 10.2213 236.11 9.96 235.982 9.8C235.854 9.63467 235.651 9.552 235.374 9.552C235.049 9.552 234.793 9.66133 234.606 9.88C234.419 10.0987 234.326 10.3973 234.326 10.776V13H233.678V9.104H234.318V9.72C234.435 9.49067 234.598 9.31467 234.806 9.192C235.014 9.06933 235.254 9.008 235.526 9.008C236.129 9.008 236.526 9.264 236.718 9.776C236.83 9.536 237.001 9.34933 237.23 9.216C237.459 9.07733 237.721 9.008 238.014 9.008ZM243.755 11.152H240.907C240.928 11.6053 241.051 11.9493 241.275 12.184C241.499 12.4133 241.816 12.528 242.227 12.528C242.68 12.528 243.096 12.3733 243.475 12.064L243.691 12.536C243.52 12.696 243.301 12.824 243.035 12.92C242.768 13.0107 242.496 13.056 242.219 13.056C241.611 13.056 241.131 12.8773 240.779 12.52C240.432 12.1627 240.259 11.6693 240.259 11.04C240.259 10.64 240.336 10.288 240.491 9.984C240.645 9.67467 240.861 9.43467 241.139 9.264C241.421 9.09333 241.741 9.008 242.099 9.008C242.616 9.008 243.021 9.17867 243.315 9.52C243.608 9.856 243.755 10.32 243.755 10.912V11.152ZM242.107 9.512C241.765 9.512 241.491 9.61867 241.283 9.832C241.08 10.0453 240.96 10.3467 240.923 10.736H243.187C243.176 10.3413 243.077 10.04 242.891 9.832C242.704 9.61867 242.443 9.512 242.107 9.512Z" fill="white"/>
<path d="M211.78 18.87C212.653 18.87 213.323 19.17 213.79 19.77C214.263 20.3633 214.5 21.2133 214.5 22.32C214.5 23.1067 214.387 23.7833 214.16 24.35C213.94 24.91 213.62 25.34 213.2 25.64C212.787 25.9333 212.287 26.08 211.7 26.08C211.287 26.08 210.883 26.0067 210.49 25.86C210.103 25.7133 209.763 25.5033 209.47 25.23L209.83 24.47C210.47 24.9833 211.083 25.24 211.67 25.24C212.243 25.24 212.687 24.99 213 24.49C213.313 23.9833 213.47 23.2667 213.47 22.34V22.32C213.323 22.66 213.083 22.93 212.75 23.13C212.423 23.3233 212.053 23.42 211.64 23.42C211.22 23.42 210.843 23.3267 210.51 23.14C210.177 22.9467 209.917 22.68 209.73 22.34C209.55 22 209.46 21.61 209.46 21.17C209.46 20.73 209.56 20.3367 209.76 19.99C209.96 19.6367 210.233 19.3633 210.58 19.17C210.933 18.97 211.333 18.87 211.78 18.87ZM211.83 22.58C212.25 22.58 212.59 22.45 212.85 22.19C213.117 21.9233 213.25 21.5767 213.25 21.15C213.25 20.7167 213.12 20.37 212.86 20.11C212.6 19.8433 212.257 19.71 211.83 19.71C211.417 19.71 211.083 19.8433 210.83 20.11C210.583 20.37 210.46 20.7167 210.46 21.15C210.46 21.5767 210.583 21.9233 210.83 22.19C211.083 22.45 211.417 22.58 211.83 22.58ZM215.586 21.12H216.776V22.31H215.586V21.12ZM215.586 24.81H216.776V26H215.586V24.81ZM223.059 23.72V24.54H222.029V26H221.019V24.54H217.849V23.77L221.189 18.95H222.029V23.72H223.059ZM218.859 23.72H221.019V20.6L218.859 23.72ZM226.375 26.08C225.555 26.08 224.928 25.7733 224.495 25.16C224.068 24.5467 223.855 23.6533 223.855 22.48C223.855 21.3067 224.068 20.4133 224.495 19.8C224.928 19.18 225.555 18.87 226.375 18.87C227.195 18.87 227.818 19.1767 228.245 19.79C228.678 20.4033 228.895 21.2967 228.895 22.47C228.895 23.65 228.678 24.5467 228.245 25.16C227.818 25.7733 227.195 26.08 226.375 26.08ZM226.375 25.25C226.888 25.25 227.265 25.0267 227.505 24.58C227.745 24.1333 227.865 23.43 227.865 22.47C227.865 21.5167 227.745 20.82 227.505 20.38C227.265 19.9333 226.888 19.71 226.375 19.71C225.862 19.71 225.485 19.9333 225.245 20.38C225.005 20.82 224.885 21.5167 224.885 22.47C224.885 23.4233 225.005 24.1267 225.245 24.58C225.485 25.0267 225.862 25.25 226.375 25.25ZM238.218 26L237.468 24.26H233.898L233.148 26H232.108L235.248 18.95H236.108L239.248 26H238.218ZM234.248 23.44H237.118L235.688 20.1L234.248 23.44ZM245.652 21C246.745 21 247.292 21.6567 247.292 22.97V26H246.282V23.01C246.282 22.5967 246.208 22.2967 246.062 22.11C245.922 21.9167 245.692 21.82 245.372 21.82C245.005 21.82 244.715 21.9467 244.502 22.2C244.288 22.4533 244.182 22.8 244.182 23.24V26H243.172V23.01C243.172 22.5967 243.098 22.2967 242.952 22.11C242.805 21.9167 242.575 21.82 242.262 21.82C241.888 21.82 241.595 21.9467 241.382 22.2C241.168 22.4533 241.062 22.8 241.062 23.24V26H240.052V21.12H241.042V21.86C241.195 21.5867 241.402 21.3767 241.662 21.23C241.922 21.0767 242.218 21 242.552 21C243.305 21 243.795 21.3133 244.022 21.94C244.175 21.6467 244.395 21.4167 244.682 21.25C244.968 21.0833 245.292 21 245.652 21Z" fill="white"/>
<path d="M231.98 32.3672C231.916 32.1953 231.786 32.0891 231.564 32.0281C231.467 32.0016 231.276 32 228.001 32C224.729 32 224.534 32.0016 224.438 32.0281C224.301 32.0656 224.216 32.1109 224.135 32.1891C223.949 32.3672 223.955 32.7048 224.152 33.0329C224.255 33.2032 227.221 37.5396 227.318 37.6599C227.528 37.9209 227.828 38.0537 228.115 38.0084C228.328 37.9772 228.551 37.8381 228.693 37.6521C228.84 37.4584 231.82 33.0939 231.88 32.9845C231.967 32.8188 232.002 32.6969 232 32.5469C232 32.4782 231.991 32.3969 231.98 32.3672Z" fill="#EB3A7A"/>
</svg>
