<svg width="23" height="16" viewBox="0 0 23 16" fill="none" xmlns="http://www.w3.org/2000/svg">
<path d="M12.5716 15.9998V11.4285H16.0001L11.4287 5.71436L6.85742 11.4285H10.2859V15.9998H12.5716Z" fill="#0076D6"/>
<path d="M5.71415 15.9995H7.99978V13.7139H5.71415C3.82389 13.7139 2.28565 12.1756 2.28565 10.2854C2.28565 8.68091 3.65589 7.13577 5.34045 6.83982L6.00441 6.72325L6.22383 6.08556C7.02726 3.74158 9.02263 2.28564 11.4283 2.28564C14.579 2.28564 17.1424 4.84898 17.1424 7.99974V9.14259H18.2852C19.5457 9.14259 20.5708 10.1677 20.5708 11.4282C20.5708 12.6888 19.5457 13.7139 18.2852 13.7139H14.8567V15.9995H18.2852C20.8063 15.9995 22.8565 13.9493 22.8565 11.4282C22.8547 10.4039 22.5098 9.40953 21.8767 8.60412C21.2437 7.79877 20.359 7.22868 19.364 6.98498C18.8646 3.05136 15.4967 0 11.4283 0C8.27865 0 5.54273 1.84111 4.29359 4.74269C1.8388 5.47639 0 7.79404 0 10.2854C0 13.4362 2.56335 15.9995 5.71415 15.9995Z" fill="#0076D6"/>
</svg>
