<svg width="369" height="290" viewBox="0 0 369 290" fill="none" xmlns="http://www.w3.org/2000/svg">
<path d="M312.614 29.8725H158.89V287.896H312.614V29.8725Z" fill="#CDE0FB"/>
<path d="M325.497 61.5608H312.636V62.1444H325.497V61.5608Z" fill="#005CA8"/>
<path d="M325.497 124.375H312.636V124.959H325.497V124.375Z" fill="#005CA8"/>
<path d="M339.114 140.825H330.388C327.336 140.825 324.824 138.339 324.824 135.269V56.3298C324.824 53.282 327.314 50.7747 330.388 50.7747H339.114C342.167 50.7747 344.678 53.2604 344.678 56.3298V135.269C344.678 138.317 342.167 140.825 339.114 140.825Z" fill="#EB3A7A"/>
<path d="M296.809 53.2604H267.363V95.8428H296.809V53.2604Z" fill="#AFCDFB"/>
<path d="M280.917 53.2604C280.917 53.2604 281.241 67.4618 267.363 78.464V53.2604H280.917Z" fill="#D9EAFF"/>
<path d="M283.818 53.2604C283.818 53.2604 283.515 67.4618 296.787 78.464V53.2604H283.818Z" fill="#D9EAFF"/>
<path d="M282.821 53.2604H282.085V95.8428H282.821V53.2604Z" fill="white"/>
<path d="M296.809 65.8622H267.363V66.4459H296.809V65.8622Z" fill="white"/>
<path d="M296.809 81.2957H267.363V81.8793H296.809V81.2957Z" fill="white"/>
<path d="M297.48 96.5129H266.692V52.5903H297.48V96.5129ZM268.035 95.1727H296.138V53.9305H268.035V95.1727Z" fill="white"/>
<path d="M250.496 53.2604H221.051V95.8428H250.496V53.2604Z" fill="#AFCDFB"/>
<path d="M234.604 53.2604C234.604 53.2604 234.929 67.4618 221.051 78.464V53.2604H234.604Z" fill="#D9EAFF"/>
<path d="M237.504 53.2604C237.504 53.2604 237.201 67.4618 250.473 78.464V53.2604H237.504Z" fill="#D9EAFF"/>
<path d="M236.509 53.2604H235.772V95.8428H236.509V53.2604Z" fill="white"/>
<path d="M250.496 65.8622H221.05V66.4459H250.496V65.8622Z" fill="white"/>
<path d="M250.496 81.2957H221.05V81.8793H250.496V81.2957Z" fill="white"/>
<path d="M251.166 96.5129H220.378V52.5903H251.166V96.5129ZM221.721 95.1727H249.824V53.9305H221.721V95.1727Z" fill="white"/>
<path d="M204.183 53.2604H174.738V95.8428H204.183V53.2604Z" fill="#AFCDFB"/>
<path d="M188.291 53.2604C188.291 53.2604 188.616 67.4618 174.738 78.464V53.2604H188.291Z" fill="#D9EAFF"/>
<path d="M191.193 53.2604C191.193 53.2604 190.89 67.4618 204.162 78.464V53.2604H191.193Z" fill="#D9EAFF"/>
<path d="M190.175 53.2604H189.439V95.8428H190.175V53.2604Z" fill="white"/>
<path d="M204.183 65.8622H174.738V66.4459H204.183V65.8622Z" fill="white"/>
<path d="M204.183 81.2957H174.738V81.8793H204.183V81.2957Z" fill="white"/>
<path d="M204.833 96.5129H174.045V52.5903H204.833V96.5129ZM175.409 95.1727H203.512V53.9305H175.409V95.1727Z" fill="white"/>
<path d="M296.809 117.199H267.363V159.781H296.809V117.199Z" fill="#AFCDFB"/>
<path d="M280.917 117.199C280.917 117.199 281.241 131.4 267.363 142.403V117.199H280.917Z" fill="#D9EAFF"/>
<path d="M283.818 117.199C283.818 117.199 283.515 131.4 296.787 142.403V117.199H283.818Z" fill="#D9EAFF"/>
<path d="M282.821 117.199H282.085V159.781H282.821V117.199Z" fill="white"/>
<path d="M296.809 129.801H267.363V130.384H296.809V129.801Z" fill="white"/>
<path d="M296.809 145.234H267.363V145.818H296.809V145.234Z" fill="white"/>
<path d="M297.48 160.43H266.692V116.529H297.48V160.43ZM268.035 159.09H296.138V117.869H268.035V159.09Z" fill="white"/>
<path d="M250.496 117.199H221.051V159.781H250.496V117.199Z" fill="#AFCDFB"/>
<path d="M234.604 117.199C234.604 117.199 234.929 131.4 221.051 142.403V117.199H234.604Z" fill="#D9EAFF"/>
<path d="M237.504 117.199C237.504 117.199 237.201 131.4 250.473 142.403V117.199H237.504Z" fill="#D9EAFF"/>
<path d="M236.509 117.199H235.772V159.781H236.509V117.199Z" fill="white"/>
<path d="M250.496 129.801H221.05V130.384H250.496V129.801Z" fill="white"/>
<path d="M250.496 145.234H221.05V145.818H250.496V145.234Z" fill="white"/>
<path d="M251.166 160.43H220.378V116.529H251.166V160.43ZM221.721 159.09H249.824V117.869H221.721V159.09Z" fill="white"/>
<path d="M204.183 117.199H174.738V159.781H204.183V117.199Z" fill="#AFCDFB"/>
<path d="M188.291 117.199C188.291 117.199 188.616 131.4 174.738 142.403V117.199H188.291Z" fill="#D9EAFF"/>
<path d="M191.193 117.199C191.193 117.199 190.89 131.4 204.162 142.403V117.199H191.193Z" fill="#D9EAFF"/>
<path d="M190.175 117.199H189.439V159.781H190.175V117.199Z" fill="white"/>
<path d="M204.183 129.801H174.738V130.384H204.183V129.801Z" fill="white"/>
<path d="M204.183 145.234H174.738V145.818H204.183V145.234Z" fill="white"/>
<path d="M204.833 160.43H174.045V116.529H204.833V160.43ZM175.409 159.09H203.512V117.869H175.409V159.09Z" fill="white"/>
<path d="M250.496 181.116H221.051V223.698H250.496V181.116Z" fill="#AFCDFB"/>
<path d="M234.604 181.116C234.604 181.116 234.929 195.317 221.051 206.319V181.116H234.604Z" fill="#D9EAFF"/>
<path d="M237.504 181.116C237.504 181.116 237.201 195.317 250.473 206.319V181.116H237.504Z" fill="#D9EAFF"/>
<path d="M236.509 181.116H235.772V223.698H236.509V181.116Z" fill="white"/>
<path d="M250.496 193.739H221.05V194.323H250.496V193.739Z" fill="white"/>
<path d="M250.496 209.173H221.05V209.756H250.496V209.173Z" fill="white"/>
<path d="M251.166 224.368H220.378V180.446H251.166V224.368ZM221.721 223.028H249.824V181.786H221.721V223.028Z" fill="white"/>
<path d="M204.183 181.116H174.738V223.698H204.183V181.116Z" fill="#AFCDFB"/>
<path d="M188.291 181.116C188.291 181.116 188.616 195.317 174.738 206.319V181.116H188.291Z" fill="#D9EAFF"/>
<path d="M191.193 181.116C191.193 181.116 190.89 195.317 204.162 206.319V181.116H191.193Z" fill="#D9EAFF"/>
<path d="M190.175 181.116H189.439V223.698H190.175V181.116Z" fill="white"/>
<path d="M204.183 193.739H174.738V194.323H204.183V193.739Z" fill="white"/>
<path d="M204.183 209.173H174.738V209.756H204.183V209.173Z" fill="white"/>
<path d="M204.833 224.368H174.045V180.446H204.833V224.368ZM175.409 223.028H203.512V181.786H175.409V223.028Z" fill="white"/>
<path d="M315.148 252.598H157.18V287.874H315.148V252.598Z" fill="#AFCDFB"/>
<path d="M194.779 97.2775L194.718 277.322C194.718 283.24 189.92 288.03 183.992 288.03L89.6981 288.01C83.7707 288.01 78.9723 283.219 78.9723 277.302L79.0328 97.2574C79.0328 91.3398 83.8312 86.5493 89.7586 86.5493L184.033 86.5896C189.98 86.5694 194.779 91.38 194.779 97.2775Z" fill="#0076D6"/>
<path d="M183.993 289.399L89.7193 289.359C83.0661 289.359 77.6427 283.944 77.6427 277.302L77.7032 97.2574C77.7032 90.6152 83.1266 85.2007 89.7798 85.2007L184.054 85.241C190.707 85.241 196.131 90.6554 196.131 97.2976L196.07 277.342C196.07 283.984 190.647 289.399 183.993 289.399ZM89.7798 87.8778C84.5983 87.8778 80.4048 92.0845 80.4048 97.2373L80.3443 277.282C80.3443 282.455 84.558 286.641 89.7193 286.641L183.993 286.682C189.175 286.682 193.368 282.475 193.368 277.322L193.429 97.2775C193.429 92.1046 189.215 87.918 184.054 87.918L89.7798 87.8778Z" fill="#005CA8"/>
<path d="M184.558 201.48V268.103C184.558 272.531 180.969 276.114 176.534 276.114H98.9128C94.4975 276.114 90.9088 272.531 90.9088 268.103V201.48C90.9088 197.052 94.4975 193.469 98.9128 193.469H176.554C177.139 193.469 177.703 193.529 178.247 193.65C181.856 194.415 184.558 197.635 184.558 201.48Z" fill="#EBF2FF"/>
<path d="M179.114 186.766H96.3518C93.3477 186.766 90.9082 184.331 90.9082 181.332V154.038C90.9082 151.039 93.3477 148.604 96.3518 148.604H179.114C182.118 148.604 184.557 151.039 184.557 154.038V181.332C184.557 184.331 182.118 186.766 179.114 186.766Z" fill="#EBF2FF"/>
<path d="M147.098 163.559H124.498C124.215 163.559 123.994 163.337 123.994 163.056C123.994 162.774 124.215 162.552 124.498 162.552H147.098C147.381 162.552 147.602 162.774 147.602 163.056C147.602 163.317 147.381 163.559 147.098 163.559Z" fill="#2B478B"/>
<path d="M162.219 167.202H124.497C124.215 167.202 123.993 166.981 123.993 166.699C123.993 166.417 124.215 166.196 124.497 166.196H162.219C162.501 166.196 162.723 166.417 162.723 166.699C162.723 166.981 162.501 167.202 162.219 167.202Z" fill="#2B478B"/>
<path d="M118.993 157.802H97.3805V179.379H118.993V157.802Z" fill="#C2CFFF"/>
<path d="M101.393 173.723L106.111 165.229L109.599 169.959L111.312 168.067L115.002 173.723H101.393Z" fill="#AABDF2"/>
<path d="M108.369 164.002C108.369 163.337 108.913 162.774 109.599 162.774C110.264 162.774 110.829 163.317 110.829 164.002C110.829 164.686 110.284 165.229 109.599 165.229C108.913 165.229 108.369 164.686 108.369 164.002Z" fill="#AABDF2"/>
<path d="M161.512 159.996H124.435C124.153 159.996 123.931 159.775 123.931 159.493V158.285C123.931 158.004 124.153 157.782 124.435 157.782H161.512C161.794 157.782 162.016 158.004 162.016 158.285V159.493C162.016 159.775 161.794 159.996 161.512 159.996Z" fill="#2B478B"/>
<path d="M129.457 173.321L132.582 173.784L130.324 175.978L130.868 179.078L128.066 177.608L125.284 179.078L125.828 175.978L123.57 173.784L126.675 173.341L128.066 170.523L129.457 173.321Z" fill="#F78248"/>
<path d="M140.243 173.321L143.368 173.784L141.11 175.978L141.634 179.078L138.852 177.608L136.07 179.078L136.594 175.978L134.356 173.784L137.461 173.341L138.852 170.523L140.243 173.321Z" fill="#F78248"/>
<path d="M151.029 173.321L154.134 173.784L151.896 175.978L152.42 179.078L149.638 177.608L146.856 179.078L147.38 175.978L145.122 173.784L148.247 173.341L149.638 170.523L151.029 173.321Z" fill="#F78248"/>
<path d="M161.816 173.321L164.921 173.784L162.663 175.978L163.207 179.078L160.425 177.608L157.643 179.078L158.167 175.978L155.909 173.784L159.034 173.341L160.405 170.523L161.816 173.321Z" fill="#F78248"/>
<path d="M172.582 173.321L175.707 173.784L173.449 175.978L173.994 179.078L171.211 177.608L168.429 179.078L168.953 175.978L166.695 173.784L169.8 173.341L171.191 170.523L172.582 173.321Z" fill="#F78248"/>
<path d="M179.114 142.545H96.3518C93.3477 142.545 90.9082 140.11 90.9082 137.111V109.837C90.9082 106.838 93.3477 104.403 96.3518 104.403H179.114C182.118 104.403 184.557 106.838 184.557 109.837V137.111C184.557 140.13 182.118 142.545 179.114 142.545Z" fill="#EBF2FF"/>
<path d="M147.098 119.338H124.498C124.215 119.338 123.994 119.116 123.994 118.835C123.994 118.553 124.215 118.331 124.498 118.331H147.098C147.381 118.331 147.602 118.553 147.602 118.835C147.602 119.116 147.381 119.338 147.098 119.338Z" fill="#2B478B"/>
<path d="M162.219 123.001H124.497C124.215 123.001 123.993 122.78 123.993 122.498C123.993 122.216 124.215 121.995 124.497 121.995H162.219C162.501 121.995 162.723 122.216 162.723 122.498C162.723 122.759 162.501 123.001 162.219 123.001Z" fill="#2B478B"/>
<path d="M118.993 113.581H97.3805V135.158H118.993V113.581Z" fill="#C2CFFF"/>
<path d="M101.393 129.502L106.111 121.008L109.599 125.738L111.312 123.846L115.002 129.502H101.393Z" fill="#AABDF2"/>
<path d="M108.369 119.801C108.369 119.136 108.913 118.573 109.599 118.573C110.264 118.573 110.829 119.116 110.829 119.801C110.829 120.465 110.284 121.028 109.599 121.028C108.913 121.008 108.369 120.465 108.369 119.801Z" fill="#AABDF2"/>
<path d="M161.512 115.795H124.435C124.153 115.795 123.931 115.574 123.931 115.292V114.084C123.931 113.803 124.153 113.581 124.435 113.581H161.512C161.794 113.581 162.016 113.803 162.016 114.084V115.292C162.016 115.574 161.794 115.795 161.512 115.795Z" fill="#2B478B"/>
<path d="M129.457 129.12L132.582 129.563L130.324 131.757L130.868 134.856L128.066 133.407L125.284 134.856L125.828 131.777L123.57 129.583L126.675 129.12L128.066 126.302L129.457 129.12Z" fill="#F78248"/>
<path d="M140.243 129.12L143.368 129.563L141.11 131.757L141.634 134.856L138.852 133.407L136.07 134.856L136.594 131.777L134.356 129.583L137.461 129.12L138.852 126.302L140.243 129.12Z" fill="#F78248"/>
<path d="M151.029 129.12L154.134 129.563L151.896 131.757L152.42 134.856L149.638 133.407L146.856 134.856L147.38 131.777L145.122 129.583L148.247 129.12L149.638 126.302L151.029 129.12Z" fill="#F78248"/>
<path d="M161.816 129.12L164.921 129.563L162.663 131.757L163.207 134.856L160.425 133.407L157.643 134.856L158.167 131.777L155.909 129.583L159.034 129.12L160.405 126.302L161.816 129.12Z" fill="#F78248"/>
<path d="M172.582 129.12L175.707 129.563L173.449 131.757L173.994 134.856L171.211 133.407L168.429 134.856L168.953 131.777L166.695 129.583L169.8 129.12L171.191 126.302L172.582 129.12Z" fill="#F78248"/>
<g opacity="0.3">
<path d="M125.91 218.87C125.285 218.79 124.66 218.75 124.035 218.75C123.934 218.75 123.833 218.75 123.732 218.75C116.071 218.911 109.901 225.171 109.901 232.859C109.901 233.604 109.962 234.329 110.063 235.053C111.111 241.716 116.797 246.828 123.712 246.969C123.813 246.969 123.914 246.969 124.014 246.969C124.66 246.969 125.285 246.929 125.889 246.848C132.079 246.023 137.018 241.192 137.986 235.053C138.087 234.329 138.147 233.604 138.147 232.859C138.168 225.714 132.825 219.796 125.91 218.87ZM125.91 242.199C125.305 242.32 124.68 242.38 124.035 242.38C123.934 242.38 123.833 242.38 123.732 242.38C119.357 242.239 115.748 239.159 114.781 235.073C114.619 234.369 114.518 233.644 114.518 232.88C114.518 227.727 118.611 223.54 123.732 223.379C123.833 223.379 123.934 223.379 124.035 223.379C124.68 223.379 125.305 223.44 125.91 223.56C130.264 224.426 133.551 228.27 133.551 232.88C133.551 233.624 133.47 234.369 133.289 235.073C132.442 238.656 129.559 241.454 125.91 242.199Z" fill="#0076D6"/>
<path d="M114.497 232.859C114.497 233.604 114.578 234.349 114.759 235.053H97.239V232.859H114.497Z" fill="#0076D6"/>
<path d="M178.247 232.859V235.053H133.287C133.449 234.349 133.55 233.624 133.55 232.859H178.247Z" fill="#0076D6"/>
<path d="M125.909 196.488V223.56C125.304 223.439 124.679 223.379 124.034 223.379C123.933 223.379 123.832 223.379 123.731 223.379V196.508H125.909V196.488Z" fill="#0076D6"/>
<path d="M125.908 242.199V271.445H123.711V242.38C123.811 242.38 123.912 242.38 124.013 242.38C124.678 242.38 125.303 242.319 125.908 242.199Z" fill="#0076D6"/>
<path d="M176.051 196.488V234.369V236.402H178.248V234.369V196.649L176.051 196.488Z" fill="#0076D6"/>
<path d="M153.449 196.488H151.251V271.445H153.449V196.488Z" fill="#0076D6"/>
<path d="M139.659 199.266H128.792V216.113H139.659V199.266Z" fill="#0076D6"/>
<path d="M107.804 211.926H97.2191V224.023H107.804V211.926Z" fill="#0076D6"/>
<path d="M118.53 199.266H97.2191V209.833H118.53V199.266Z" fill="#0076D6"/>
<path d="M149.095 199.266H141.495V209.732H149.095V199.266Z" fill="#0076D6"/>
<path d="M149.095 211.926H141.495V229.417H149.095V211.926Z" fill="#0076D6"/>
<path d="M149.095 237.147H141.495V247.512H149.095V237.147Z" fill="#0076D6"/>
<path d="M164.458 199.266H158.328V229.438H164.458V199.266Z" fill="#0076D6"/>
<path d="M174.053 199.266H166.452V229.438H174.053V199.266Z" fill="#0076D6"/>
<path d="M178.247 238.234H157.179V271.445H178.247V238.234Z" fill="#0076D6"/>
<path d="M149.074 258.885H128.106V271.445H149.074V258.885Z" fill="#0076D6"/>
<path d="M149.074 249.867H128.106V256.53H149.074V249.867Z" fill="#0076D6"/>
<path d="M116.05 249.867H97.2191V271.445H116.05V249.867Z" fill="#0076D6"/>
<path d="M105.143 236.241H97.2191V247.875H105.143V236.241Z" fill="#0076D6"/>
</g>
<path d="M48.8735 277.977H45.5734V282.47H48.8735V277.977Z" fill="#005CA8"/>
<path d="M67.53 277.977H64.2299V282.47H67.53V277.977Z" fill="#005CA8"/>
<path d="M44.8796 283.144C44.8796 281.852 45.9297 280.804 47.2235 280.804C48.5173 280.804 49.5674 281.852 49.5674 283.144C49.5674 284.436 48.5173 285.484 47.2235 285.484C45.9297 285.484 44.8796 284.436 44.8796 283.144Z" fill="#1F4777"/>
<path d="M45.7981 283.144C45.7981 282.358 46.4356 281.721 47.2232 281.721C48.0107 281.721 48.6482 282.358 48.6482 283.144C48.6482 283.93 48.0107 284.567 47.2232 284.567C46.4356 284.567 45.7981 283.93 45.7981 283.144Z" fill="#005CA8"/>
<path d="M63.5369 283.144C63.5369 281.852 64.5869 280.804 65.8807 280.804C67.1745 280.804 68.2246 281.852 68.2246 283.144C68.2246 284.436 67.1745 285.484 65.8807 285.484C64.5869 285.484 63.5369 284.436 63.5369 283.144Z" fill="#1F4777"/>
<path d="M64.4547 283.144C64.4547 282.358 65.0922 281.721 65.8798 281.721C66.6673 281.721 67.3048 282.358 67.3048 283.144C67.3048 283.93 66.6673 284.567 65.8798 284.567C65.0922 284.567 64.4547 283.93 64.4547 283.144Z" fill="#005CA8"/>
<path d="M73.7936 280.486H39.6483C36.3669 280.486 33.723 277.827 33.723 274.57V273.803H79.2689V275.019C79.2876 278.033 76.8313 280.486 73.7936 280.486Z" fill="#EC2E73"/>
<path d="M80.844 217.624V271.893C80.844 272.548 80.769 273.185 80.6378 273.803H74.2625C73.2687 273.803 72.3499 274.083 71.5811 274.589C71.0936 274.888 70.6811 275.281 70.3248 275.731C69.6685 276.573 69.2747 277.64 69.2747 278.801V280.486H44.2798V278.801C44.2798 277.06 43.3798 275.525 42.0297 274.626C41.6547 274.383 41.2234 274.177 40.7734 274.027C40.3046 273.877 39.7984 273.803 39.2733 273.803H32.373C32.2418 273.185 32.1667 272.548 32.1667 271.893V217.624C32.1667 212.869 36.0107 209.032 40.7734 209.032H72.2374C77.0001 209.013 80.844 212.869 80.844 217.624Z" fill="#F56FA0"/>
<path d="M65.6744 208.994C59.7866 206.673 54.8739 206.786 51.7987 207.291C48.4611 207.834 46.4922 208.957 46.4547 208.957L46.0422 208.246C46.1172 208.19 48.1423 207.066 51.6112 206.486C54.7989 205.962 59.8804 205.831 65.9744 208.227L65.6744 208.994Z" fill="#005CA8"/>
<path d="M42.0293 209.013V274.608C41.6542 274.364 41.223 274.158 40.7729 274.009V209.013H42.0293Z" fill="#EB3A7A"/>
<path d="M52.0603 209.013H50.804V280.486H52.0603V209.013Z" fill="#EB3A7A"/>
<path d="M61.437 209.013H60.1807V280.486H61.437V209.013Z" fill="#EB3A7A"/>
<path d="M71.5619 209.013V274.57C71.0743 274.87 70.6618 275.263 70.3055 275.712V209.013H71.5619Z" fill="#EB3A7A"/>
<path d="M4.97738 180.915C4.97738 180.821 6.34619 177.994 5.91492 177.77C5.48365 177.545 4.69612 177.583 4.60236 178.088C4.50861 178.575 4.97738 180.915 4.97738 180.915Z" fill="#FFB27D"/>
<path d="M5.5017 182.618C5.5017 182.337 5.18293 178.107 4.4704 177.246C3.75786 176.403 2.2953 175.205 1.82652 175.243C1.35775 175.28 -0.442335 177.676 0.10144 179.492C0.645216 181.327 2.93282 183.798 2.93282 183.798L5.5017 182.618Z" fill="#FFB27D"/>
<path d="M8.22123 177.47L4.05853 178.724C3.92728 178.762 3.77727 178.687 3.73977 178.556L1.35841 170.619C1.32091 170.488 1.39591 170.338 1.52717 170.3L5.70861 169.046C5.83986 169.009 5.98987 169.084 6.02738 169.215L8.40874 177.152C8.44624 177.283 8.37124 177.433 8.22123 177.47Z" fill="#F1A34F"/>
<path d="M7.13329 177.788L3.34562 178.93C3.10186 179.005 2.83934 178.855 2.76434 178.612L0.495482 171.049C0.420478 170.806 0.570488 170.544 0.814249 170.469L4.60192 169.327C4.84568 169.252 5.1082 169.402 5.1832 169.645L7.45206 177.208C7.52706 177.47 7.3958 177.714 7.13329 177.788Z" fill="#D86713"/>
<path d="M1.37695 175.542C1.37695 175.542 3.12078 172.865 3.5333 173.015C4.13333 173.221 1.95823 176.609 1.95823 176.609C1.95823 176.609 3.5708 174.082 3.83331 174.269C4.41459 174.7 3.4958 176.291 2.57701 177.508C2.57701 177.508 4.20833 176.029 4.26459 176.291C4.4521 177.227 2.48325 179.492 2.48325 179.492L1.37695 176.983V175.542Z" fill="#FFB27D"/>
<path d="M0.0822754 178.032C0.157279 177.714 0.588551 171.33 0.77606 171.929C0.963569 172.528 1.39484 175.879 1.39484 175.879L0.0822754 178.032Z" fill="#FFB27D"/>
<path d="M27.8159 176.272C27.8159 176.272 27.6284 183.198 25.6408 188.796C24.0658 193.214 21.3469 196.789 16.6779 195.479C16.2091 195.348 15.7404 195.198 15.2904 195.048C5.82116 191.753 2.76477 184.209 2.76477 184.209C3.4773 183.049 5.52115 182.618 5.52115 182.618C7.43374 182.712 15.8154 186.269 16.3404 186.381C18.2717 186.774 19.8468 176.141 21.1031 172.453C22.3594 168.765 27.5159 167.118 27.5159 167.118L27.8159 176.272Z" fill="#0076D6"/>
<path d="M25.8092 183.797L25.6217 188.796C24.0467 193.214 21.3278 196.789 16.6588 195.479C16.19 195.348 15.7213 195.198 15.2712 195.048C15.4212 195.067 18.2714 195.46 19.4714 194.262C20.6902 193.026 20.5777 188.964 22.8278 186.269C25.0967 183.535 25.8092 183.797 25.8092 183.797Z" fill="#5283DB"/>
<path d="M26.072 275.132C26.072 275.132 28.3971 277.247 27.9471 278.763C27.497 280.28 25.3969 281.272 25.0969 283.125C24.8157 284.978 23.6719 285.971 22.6593 285.971C21.628 285.971 17.7841 285.971 17.7841 285.971C17.7841 285.971 17.034 284.679 18.8529 284.286C20.6717 283.893 21.3655 281.721 21.253 279.718C21.1405 277.715 21.4217 275.019 21.4217 275.019L25.2844 274.121L26.072 275.132Z" fill="#0B2442"/>
<path d="M0.402222 285.596H14.7654C15.3279 285.596 15.7967 285.147 15.8154 284.585C15.8342 283.743 15.7592 282.526 15.3092 281.496C14.5404 279.793 14.0529 279.493 17.2968 274.57C16.3217 275.562 13.6966 275.113 11.484 274.813C11.2215 275.244 7.09628 281.59 6.19624 282.245C5.16494 282.957 0.702236 282.695 0.402222 285.596Z" fill="#0B2442"/>
<path d="M22.7714 206.074C22.7714 206.074 12.3646 225.693 9.53326 236.494C7.3394 244.88 20.7463 277.322 20.7463 277.322C20.7463 277.322 21.8338 277.247 23.6339 276.554C25.3965 275.862 26.0528 274.027 26.0528 274.027C26.0528 274.027 25.2652 250.833 22.5464 239.601C21.9463 237.074 25.4903 228.95 31.5093 224.513C37.5096 220.058 40.0222 205.737 36.4408 204.782C32.8594 203.79 22.7714 206.074 22.7714 206.074Z" fill="#005CA8"/>
<path d="M31.6967 200.496C31.6967 200.496 20.7462 240.556 17.4273 249.56C14.1084 258.565 8.83936 277.659 8.83936 277.659C8.83936 277.659 12.177 279.213 16.4335 278.483C16.4335 278.483 32.4467 255.064 33.1405 244.731C33.4593 239.938 49.5663 220.994 47.7662 208.62L31.6967 200.496Z" fill="#1C468A"/>
<path d="M47.7283 213.001C47.7283 213.001 45.4032 214.18 41.278 214.517C36.5715 214.91 29.5025 214.217 20.8958 209.444C20.8958 209.444 18.4957 207.478 21.4396 199.073C23.6709 192.727 24.7585 179.323 27.4774 167.118C27.4774 167.118 36.309 164.348 43.3969 166.744C48.8159 168.578 48.2721 176.871 49.2659 185.501C49.3596 186.306 49.4721 187.111 49.5846 187.916C51.1035 197.388 47.7283 213.001 47.7283 213.001Z" fill="#0076D6"/>
<path d="M24.385 149.035C24.385 149.035 30.4228 139.244 35.0918 144.28C35.0918 144.28 38.1482 145.066 39.892 149.802C41.6733 154.651 38.8982 158.919 37.0419 158.226C35.8606 157.777 35.298 159.836 35.298 159.836L24.385 149.035Z" fill="#233862"/>
<path d="M34.1543 143.512C34.1543 143.512 34.5668 139.45 40.5108 139.843C40.5108 139.843 37.6982 139.899 37.0982 141.06C37.0982 141.06 39.142 139.75 40.6233 140.386C42.1047 141.023 42.7422 143.812 42.6672 144.692C42.5922 145.572 41.4484 148.342 40.4358 148.492C39.442 148.642 38.1295 147.93 38.1295 147.93L34.1543 143.512Z" fill="#233862"/>
<path d="M37.1539 166.482C36.5914 165.003 35.7663 163.449 35.0913 158.694L34.735 158.825L28.7347 160.941C28.7347 160.941 29.1473 162.85 29.4285 164.685C29.541 165.433 29.616 166.762 29.6723 167.923C29.7285 169.121 30.8911 169.233 32.0911 169.177C35.26 169.028 37.0039 167.848 37.1539 166.482Z" fill="#FFB27D"/>
<path d="M28.7347 160.941C28.7347 160.941 29.1473 162.85 29.4285 164.685C32.8599 164.085 34.2287 160.678 34.735 158.825L28.7347 160.941Z" fill="#E8945B"/>
<path d="M35.278 158.076C35.278 158.076 36.6843 154.969 36.7593 152.46C36.8156 150.682 34.9967 144.336 28.6214 146.208C28.6214 146.208 26.7651 146.657 25.1525 148.117C23.8774 149.278 22.1336 151.618 25.2275 156.934L26.09 158.75L35.278 158.076Z" fill="#233862"/>
<path d="M27.8335 162.831C27.8335 162.831 36.0276 161.783 35.2963 156.71C34.565 151.637 35.1276 148.08 29.8773 148.529C24.6271 148.979 23.877 151.056 23.7083 152.816C23.5395 154.576 25.6959 162.981 27.8335 162.831Z" fill="#FFB27D"/>
<path d="M26.1473 148.941C26.1473 148.941 29.2412 154.576 32.8039 154.969C36.3666 155.362 37.7166 154.22 37.7166 154.22C37.7166 154.22 34.7915 152.517 33.7039 148.941C33.7039 148.941 27.4224 145.852 26.1473 148.941Z" fill="#233862"/>
<path d="M26.7653 149.334C26.7653 149.334 25.284 150.907 25.059 152.254C24.834 153.602 25.0403 156.298 24.2527 156.317C24.2527 156.317 21.9839 152.517 23.5402 149.952C25.209 147.238 26.7653 149.334 26.7653 149.334Z" fill="#233862"/>
<path d="M26.4847 149.596C26.4847 149.596 28.9786 155.605 33.5913 156.991C33.5913 156.991 28.7161 153.771 27.741 149.709C26.766 145.646 26.4847 149.596 26.4847 149.596Z" fill="#233862"/>
<path d="M47.7297 213C47.7297 213 45.4046 214.18 41.2794 214.517C41.2794 214.517 37.9042 210.286 41.6732 205.531C45.4421 200.776 41.3732 192.034 44.2795 187.261C46.3046 183.947 48.2735 184.715 49.286 185.501C49.3798 186.306 49.4923 187.111 49.6048 187.916C51.1049 197.388 47.7297 213 47.7297 213Z" fill="#5283DB"/>
<path d="M62.5993 205.962C62.5993 205.962 63.1055 207.122 63.7993 207.197C64.9431 207.328 67.1182 208.283 67.4745 208.489C68.3933 209.032 68.337 211.503 67.4182 211.728C66.4994 211.952 66.0307 209.893 63.1243 209.35C62.1492 209.163 60.7054 209.837 60.1241 207.497L62.5993 205.962Z" fill="#FFB27D"/>
<path d="M43.4166 166.744C51.8545 169.832 52.1545 184.752 55.9234 191.323C59.8049 198.1 63.5738 207.01 63.5738 207.01C63.5738 207.01 63.4988 207.272 62.055 207.684C61.0424 207.984 59.9736 207.853 59.9736 207.853C59.9736 207.853 52.0045 200.664 49.8482 197.819C47.6918 194.973 42.5728 181.813 42.5728 181.813C42.5728 181.813 40.079 165.508 43.4166 166.744Z" fill="#0076D6"/>
<path d="M60.3102 208.077C60.3102 208.077 60.5164 209.088 61.754 209.893C62.9916 210.698 63.9854 211.522 64.1166 211.016C64.2291 210.511 63.4228 209.968 63.2353 209.051C63.0478 208.115 60.3102 208.077 60.3102 208.077Z" fill="#FFB27D"/>
<path d="M318.395 38.9078H153.911L162.68 0H309.627L318.395 38.9078Z" fill="#EB3A7A"/>
<path d="M198.903 11.5426H183.812V26.6086H198.903V11.5426Z" fill="#BDD1F9"/>
<path d="M183.12 10.851V27.3003H199.596V10.851H183.12ZM198.189 25.8953H184.505V12.2343H198.189V25.8953Z" fill="#005CA8"/>
<path d="M192.029 26.6096V11.5437H190.665V26.6096H192.029Z" fill="#005CA8"/>
<path d="M201.955 8.01941H180.109V11.1753H201.955V8.01941Z" fill="#005CA8"/>
<path d="M243.807 11.5426H228.716V26.6086H243.807V11.5426Z" fill="#BDD1F9"/>
<path d="M228.001 10.851V27.3003H244.477V10.851H228.001ZM243.092 25.8953H229.408V12.2343H243.092V25.8953Z" fill="#005CA8"/>
<path d="M236.927 26.615V11.5491H235.563V26.615H236.927Z" fill="#005CA8"/>
<path d="M246.687 8.01941H224.841V11.1753H246.687V8.01941Z" fill="#005CA8"/>
<path d="M288.538 11.5426H273.447V26.6086H288.538V11.5426Z" fill="#BDD1F9"/>
<path d="M272.73 10.851V27.3003H289.207V10.851H272.73ZM287.821 25.8953H274.138V12.2343H287.821V25.8953Z" fill="#005CA8"/>
<path d="M281.659 26.613V11.5471H280.295V26.613H281.659Z" fill="#005CA8"/>
<path d="M291.418 8.01941H269.572V11.1753H291.418V8.01941Z" fill="#005CA8"/>
<path d="M237.826 158.196C238.525 160.07 239.744 162.263 241.022 162.802C242.46 163.42 243.079 164.297 243.079 164.297L244.237 163.619L245.635 162.802C245.635 162.802 245.595 162.642 245.535 162.403C245.475 162.144 245.355 161.805 245.216 161.406C245.216 161.406 244.796 160.848 245.056 160.17C245.316 159.472 245.256 158.415 244.816 157.757C244.377 157.099 243.938 155.504 243.678 155.564C243.019 155.684 243.997 157.877 243.718 158.276C243.458 158.634 243.159 158.515 243.099 158.495C243.099 158.495 243.099 158.495 243.079 158.495C241.241 157.697 239.025 153.371 238.046 153.949C237.666 154.148 237.527 157.378 237.826 158.196Z" fill="#FFB27D"/>
<path d="M244.136 160.808L241.839 162.423C241.68 162.542 241.46 162.503 241.34 162.343L235.469 154.009C235.349 153.849 235.389 153.63 235.548 153.51L237.845 151.895C238.005 151.776 238.225 151.816 238.344 151.975L244.216 160.309C244.356 160.469 244.316 160.688 244.136 160.808Z" fill="#2B478B"/>
<path d="M242.038 162.283L240.7 163.22C240.581 163.3 240.401 163.28 240.321 163.161L234.349 154.687C234.27 154.567 234.29 154.388 234.409 154.308L235.747 153.371C235.867 153.291 236.047 153.311 236.127 153.431L242.098 161.904C242.198 162.024 242.178 162.203 242.038 162.283Z" fill="#233862"/>
<path d="M277.029 148.845C277.029 148.845 265.365 169.162 261.131 172.89L245.614 161.346C245.614 161.346 243.357 162.044 242.378 164.297C242.378 164.297 254.301 183.478 261.072 184.275C270.318 185.352 283.36 161.306 283.36 161.306L277.029 148.845Z" fill="#233862"/>
<path d="M298.819 287.297H305.549C306.388 286.838 307.147 285.782 307.386 284.206C307.706 282.033 310.142 280.857 310.682 279.082C311.201 277.308 308.505 274.815 308.505 274.815L308.045 274.237L307.586 273.639L303.112 274.696C303.112 274.696 302.993 275.753 302.933 277.108C302.893 278.085 302.853 279.222 302.913 280.199C303.052 282.571 302.254 285.104 300.157 285.562C298.599 285.921 298.679 286.838 298.819 287.297Z" fill="#2D4C7F"/>
<path d="M264.307 286.958H279.725C280.464 286.061 280.184 282.731 280.085 281.634C280.065 281.415 280.045 281.295 280.045 281.295C280.045 281.295 274.792 277.088 274.053 280.318C274.033 280.418 274.013 280.518 273.973 280.617C273.055 283.628 268.98 285.004 266.624 285.383C265.086 285.622 264.527 286.42 264.307 286.958Z" fill="#2D4C7F"/>
<path d="M267.243 201.083C267.243 201.083 268.041 211.033 268.98 222.996C270.258 239.245 271.796 259.204 271.936 262.992C272.195 269.552 273.254 280.059 273.254 280.059C273.254 280.059 275.75 282.551 280.743 281.495C280.743 281.495 285.197 266.501 286.475 250.63C286.495 250.371 286.515 250.112 286.535 249.853C287.713 233.702 289.551 199.688 289.551 199.688L267.243 201.083Z" fill="#EB3A7A"/>
<path d="M267.243 201.083C267.243 201.083 268.041 211.032 268.98 222.996L286.475 250.65C286.495 250.391 286.515 250.132 286.535 249.872C287.713 233.722 289.551 199.708 289.551 199.708L267.243 201.083Z" fill="#EB3A7A"/>
<path d="M271.157 199.468C271.157 199.468 283.24 236.255 291.568 253.681C299.896 271.107 302.532 275.992 302.532 275.992C302.532 275.992 307.965 274.118 308.524 272.682C308.524 272.682 305.648 242.097 299.876 233.782C296.621 229.097 294.424 213.106 294.504 208.381C294.584 203.655 294.045 194.244 294.045 194.244L271.157 199.468Z" fill="#EB3A7A"/>
<path d="M274.473 149.722C280.105 151.497 289.831 146.711 289.831 146.711C289.831 146.711 284.639 142.823 284.918 134.748L280.564 138.258L277.609 140.63C277.609 140.63 277.629 142.026 277.948 144.498V144.518C278.108 145.754 277.609 146.971 276.63 147.728C275.252 148.745 274.473 149.722 274.473 149.722Z" fill="#FFB27D"/>
<path d="M277.629 140.61C277.629 140.61 277.649 142.006 277.968 144.478C281.243 143.92 284.958 138.636 284.958 138.636C283.28 138.158 281.823 138.078 280.584 138.238L277.629 140.61Z" fill="#ED975D"/>
<path d="M275.91 140.491C275.91 140.491 285.197 142.026 286.076 136.244C286.954 130.442 288.732 126.753 282.84 125.517C276.949 124.281 275.451 126.334 274.692 128.189C273.913 130.043 273.514 139.932 275.91 140.491Z" fill="#FFB27D"/>
<path d="M266.624 201.921C266.784 202.06 266.983 202.14 267.223 202.14C269.34 202.12 275.491 203.276 280.724 202.758C285.118 202.339 289.012 201.043 293.186 199.169C293.745 198.93 295.023 198.232 294.983 197.614C294.963 196.936 294.904 195.959 294.804 194.723C294.504 190.416 293.985 183.019 294.504 174.466C294.604 172.87 294.644 171.295 294.644 169.74C294.684 158.156 292.387 147.967 287.774 144.518C287.374 144.239 284.958 145.415 282.721 146.512C280.664 147.529 279.086 147.629 277.129 147.23L274.712 148.964C272.336 151.158 269.76 154.148 268.621 158.674C267.663 162.522 267.103 169.481 266.784 176.679C266.644 179.949 266.524 183.238 266.504 186.349V186.468C266.484 186.787 266.484 187.126 266.484 187.425C266.364 195.441 266.484 201.801 266.624 201.921Z" fill="#2B478B"/>
<path d="M294.804 194.703C294.505 190.396 293.985 182.999 294.505 174.446C294.604 172.851 294.644 171.275 294.644 169.72C292.727 165.055 291.149 161.685 291.149 161.685H286.296C286.296 161.685 282.741 185.95 294.804 194.703Z" fill="#233862"/>
<path d="M286.076 135.666C286.076 135.666 285.118 135.506 285.277 134.19C285.437 132.874 285.437 131.159 284.359 131.478C283.3 131.797 283.24 132.655 282.801 132.156C282.362 131.658 282.362 129.564 279.166 129.405C275.991 129.265 274.692 130.362 273.215 129.724C271.737 129.066 271.657 126.833 271.657 126.833C271.657 126.833 272.076 127.63 272.715 127.89C272.715 127.89 270.259 124.52 273.095 122.207C275.951 119.894 278.867 121.41 280.524 121.509C284.159 121.729 286.516 121.948 287.714 124.341C288.912 126.753 288.413 133.373 286.076 135.666Z" fill="#2B478B"/>
<path d="M356.875 282.93C356.596 284.725 357.934 286.818 359.891 287.576C361.848 288.334 363.665 287.496 363.965 285.702C364.245 283.907 362.907 281.814 360.949 281.056C358.992 280.278 357.175 281.116 356.875 282.93Z" fill="#1C468A"/>
<path d="M332.03 282.97C331.751 284.765 333.089 286.858 335.046 287.616C337.003 288.373 338.821 287.536 339.12 285.742C339.4 283.947 338.062 281.854 336.104 281.096C334.147 280.318 332.31 281.176 332.03 282.97Z" fill="#1C468A"/>
<path d="M363.925 282.472L359.471 284.286C359.012 284.465 358.513 284.565 357.993 284.565L329.973 284.326L325.58 279.142L363.925 282.472Z" fill="#0076D6"/>
<path d="M335.226 222.517L324.501 206.845L324.481 206.806C324.421 206.666 322.704 203.316 313.637 202.399H313.597L306.127 201.382C305.169 201.203 302.373 200.884 301.134 201.542C300.575 201.821 300.376 202.28 300.495 202.938C300.735 204.234 307.865 214.402 312.598 220.922L311.2 221.281C309.982 219.606 299.317 204.872 298.978 202.997C298.798 202.02 299.177 201.263 300.116 200.784C302.153 199.727 306.047 200.385 306.467 200.465L313.836 201.462C323.602 202.439 325.759 206.148 325.979 206.566L336.664 222.198L335.226 222.517Z" fill="#1C468A"/>
<path d="M316.853 219.407L302.553 222.517C302.553 222.517 298.619 224.351 301.535 232.247C304.091 239.186 317.472 278.165 317.472 278.165C317.472 278.165 320.268 286.28 336.565 283.887L316.853 219.407Z" fill="#0076D6"/>
<path d="M311.24 230.153L326.518 273.799C327.137 275.573 328.156 277.188 329.454 278.544C331.851 281.056 335.126 282.691 338.341 282.711L352.361 282.771H352.701L361.468 282.811C362.347 282.811 363.166 282.691 363.925 282.472C364.104 282.412 364.264 282.372 364.444 282.292C367.22 281.255 368.898 278.723 368.957 275.613C368.977 274.297 368.718 272.861 368.119 271.406L351.023 229.655C349.206 225.209 344.772 221.799 340.299 221.381L337.762 221.141L337.163 221.081L336.664 221.042L328.196 220.244L327.157 220.144L318.989 219.387C317.711 219.267 316.533 219.407 315.494 219.726C315.434 219.746 315.354 219.766 315.294 219.785L314.875 219.945C311.3 221.44 309.622 225.528 311.24 230.153Z" fill="#83B0FF"/>
<g opacity="0.5">
<path d="M329.455 278.544C331.851 281.056 335.127 282.691 338.342 282.711L352.362 282.771H352.701L361.469 282.811C362.348 282.811 363.166 282.691 363.925 282.472C364.105 282.412 364.265 282.372 364.445 282.292C367.221 281.255 369.737 277.487 368.758 273.499C368.758 273.499 339.061 273.16 333.129 274.157C330.074 274.676 329.714 276.949 329.455 278.544Z" fill="#0076D6"/>
</g>
<path d="M336.662 221.022C336.742 221.062 344.272 225.089 346.029 228.658C347.846 232.307 364.662 274.935 364.822 275.354C364.842 275.394 366.06 279.501 363.504 282.591L363.923 282.472C364.103 282.412 364.263 282.372 364.443 282.292C366.759 279.102 365.381 275.433 365.321 275.274C364.622 273.519 348.326 232.207 346.488 228.518C344.891 225.288 339.478 222.078 337.761 221.121L337.162 221.062L336.662 221.022Z" fill="#0076D6"/>
<path d="M327.157 220.124C328.255 220.762 332.529 223.534 334.606 228.658C337.043 234.66 351.742 278.285 351.881 278.723L351.901 278.763L351.921 278.783C351.941 278.803 353.04 281.156 352.021 282.771H352.381H352.72C353.659 281.056 352.56 278.943 352.401 278.663C351.941 277.308 337.522 234.56 335.105 228.598C333.308 224.192 329.953 221.44 328.195 220.244L327.157 220.124Z" fill="#0076D6"/>
<path d="M314.853 219.945C314.893 219.965 316.431 220.742 317.949 222.078C319.467 223.434 321.264 225.508 322.442 228.439C324.879 234.44 338.819 277.906 338.959 278.344L338.979 278.384L338.999 278.424C339.019 278.444 339.818 281.116 338.799 282.711H339.678C340.397 281.255 339.658 278.604 339.478 278.285C339.039 276.889 325.378 234.321 322.962 228.359C320.685 222.756 316.391 220.204 315.492 219.706C315.432 219.726 315.353 219.746 315.293 219.766L314.853 219.945Z" fill="#0076D6"/>
<path d="M304.67 192.889C304.67 192.889 305.289 197.335 305.329 197.913C305.629 201.821 305.069 202.2 307.206 202.898C307.806 203.097 309.403 203.097 310.322 201.961C310.322 201.961 308.824 201.861 309.084 199.708C309.383 197.235 309.224 197.933 307.726 195.919L307.366 192.211L304.67 192.889Z" fill="#FFB27D"/>
<path d="M306.687 196.657C304.929 196.996 303.052 196.856 303.052 196.856C303.052 196.856 297.859 180.846 297.2 179.39C296.541 177.935 281.782 160.628 281.782 160.628L287.934 145.276C287.934 145.276 303.871 171.874 305.508 175.602C308.185 181.783 309.103 195.62 309.103 195.62C309.103 195.62 308.065 196.378 306.687 196.657Z" fill="#2B478B"/>
<path d="M305.33 197.913C305.33 197.913 304.951 198.89 304.931 199.349C304.891 200.824 304.471 201.502 304.731 201.622C305.27 201.881 305.809 200.744 306.029 199.747C306.249 198.75 305.33 197.913 305.33 197.913Z" fill="#FFB27D"/>
<path d="M200.745 42.9127C200.745 42.064 200.05 41.3695 199.199 41.3695C198.349 41.3695 197.654 42.064 197.654 42.9127C197.654 43.7615 198.349 44.456 199.199 44.456C200.05 44.456 200.745 43.7615 200.745 42.9127Z" fill="#005CA8"/>
<path d="M201.956 41.2408C201.827 41.2408 201.699 41.1894 201.596 41.1122C200.771 40.3406 199.947 39.9805 199.097 40.0062C197.783 40.0577 196.829 41.0608 196.829 41.0865C196.649 41.2923 196.314 41.318 196.108 41.1122C195.902 40.9322 195.876 40.5978 196.082 40.3921C196.134 40.3406 197.319 39.0546 199.071 38.9774C200.204 38.926 201.312 39.389 202.343 40.3663C202.549 40.5721 202.549 40.8807 202.368 41.0865C202.24 41.1894 202.111 41.2408 201.956 41.2408Z" fill="#005CA8"/>
<path d="M203.578 39.0032C203.45 39.0032 203.321 38.9517 203.218 38.8746C201.852 37.6143 200.461 36.9712 199.018 37.0484C196.803 37.1256 195.231 38.8231 195.206 38.8488C195.025 39.0546 194.69 39.0803 194.484 38.8746C194.278 38.6945 194.252 38.3602 194.433 38.1544C194.51 38.0772 196.288 36.1225 198.941 36.0196C200.667 35.9424 202.316 36.6626 203.888 38.1287C204.094 38.3344 204.094 38.6431 203.913 38.8488C203.836 38.9517 203.707 39.0032 203.578 39.0032Z" fill="#005CA8"/>
<path d="M205.28 36.8427C205.151 36.8427 205.022 36.7912 204.919 36.7141C202.987 34.9136 200.977 34.0391 198.942 34.1163C195.773 34.2449 193.558 36.6626 193.532 36.6884C193.352 36.8941 193.017 36.9198 192.811 36.7141C192.604 36.534 192.579 36.1997 192.759 35.9939C192.862 35.891 195.284 33.2418 198.891 33.0875C201.235 32.9846 203.476 33.962 205.615 35.9682C205.821 36.1739 205.821 36.4826 205.641 36.6884C205.537 36.7912 205.409 36.8427 205.28 36.8427Z" fill="#005CA8"/>
<path d="M143.995 234.872C151.099 234.872 156.858 229.123 156.858 222.03C156.858 214.938 151.099 209.189 143.995 209.189C136.891 209.189 131.132 214.938 131.132 222.03C131.132 229.123 136.891 234.872 143.995 234.872Z" fill="#EBF2FF"/>
<path d="M124.701 223.842C125.063 234.912 144.317 251.961 144.317 251.961C144.317 251.961 162.382 233.664 162.019 222.594C161.656 211.524 152.987 202.849 142.684 203.191C132.382 203.533 124.338 212.772 124.701 223.842ZM132.322 222.413C132.12 216.374 136.898 211.282 142.946 211.061C149.035 210.859 154.096 215.63 154.317 221.668C154.519 227.747 149.781 232.799 143.692 233.02C137.644 233.222 132.543 228.492 132.322 222.413Z" fill="#EB3A7A"/>
<path d="M337.318 66.6489H336.609V64.1102H333.904V66.6489H333.195V61.1521H333.904V63.5142H336.609V61.1521H337.318V66.6489Z" fill="white"/>
<path d="M337.297 75.7531C337.297 76.161 337.256 76.5046 337.153 76.8267C337.051 77.1487 336.928 77.4064 336.743 77.6426C336.559 77.8788 336.354 78.0291 336.107 78.1579C335.861 78.2868 335.574 78.3297 335.267 78.3297C334.959 78.3297 334.692 78.2653 334.426 78.1579C334.159 78.0506 333.954 77.8788 333.769 77.6426C333.585 77.4064 333.441 77.1487 333.339 76.8267C333.236 76.5046 333.195 76.1396 333.195 75.7531V75.4095C333.195 75.0016 333.236 74.658 333.339 74.3359C333.441 74.0138 333.585 73.7347 333.769 73.52C333.954 73.3053 334.159 73.1335 334.426 73.0047C334.672 72.8758 334.959 72.8329 335.267 72.8329C335.574 72.8329 335.861 72.8973 336.107 73.0047C336.354 73.1335 336.579 73.2838 336.764 73.52C336.948 73.7562 337.071 74.0138 337.174 74.3359C337.277 74.658 337.318 75.023 337.318 75.4095V75.7531H337.297ZM336.62 75.388C336.62 75.066 336.579 74.7868 336.518 74.5506C336.456 74.3145 336.374 74.0997 336.251 73.928C336.128 73.7562 335.984 73.6273 335.82 73.5415C335.656 73.4556 335.451 73.4126 335.246 73.4126C335.041 73.4126 334.856 73.4556 334.672 73.5415C334.508 73.6273 334.364 73.7562 334.241 73.928C334.118 74.0997 334.036 74.293 333.954 74.5506C333.892 74.7868 333.851 75.0874 333.851 75.388V75.7316C333.851 76.0537 333.892 76.3328 333.954 76.5905C334.015 76.8267 334.118 77.0414 334.241 77.2132C334.364 77.3849 334.508 77.5138 334.672 77.5997C334.836 77.6855 335.041 77.7285 335.246 77.7285C335.472 77.7285 335.656 77.6855 335.841 77.5997C336.005 77.5138 336.148 77.3849 336.272 77.2132C336.395 77.0414 336.477 76.8481 336.538 76.5905C336.6 76.3543 336.62 76.0537 336.62 75.7316V75.388Z" fill="white"/>
<path d="M336.547 88.5718C336.547 88.443 336.525 88.3356 336.479 88.2497C336.434 88.1638 336.366 88.0565 336.276 87.9921C336.162 87.9062 336.026 87.8418 335.868 87.7773C335.687 87.7129 335.483 87.627 335.211 87.5626C334.939 87.4767 334.69 87.3908 334.463 87.305C334.237 87.1976 334.056 87.0902 333.875 86.9614C333.716 86.8326 333.603 86.6823 333.512 86.532C333.421 86.3602 333.376 86.1884 333.376 85.9737C333.376 85.759 333.421 85.5657 333.512 85.394C333.603 85.2222 333.739 85.0719 333.897 84.9216C334.056 84.7928 334.26 84.6854 334.509 84.621C334.735 84.5566 335.007 84.5136 335.302 84.5136C335.619 84.5136 335.913 84.5566 336.14 84.6425C336.389 84.7283 336.593 84.8572 336.774 85.0075C336.933 85.1578 337.068 85.3295 337.159 85.5228C337.25 85.716 337.295 85.9308 337.295 86.124H336.547C336.547 85.9737 336.525 85.8449 336.479 85.716C336.434 85.5872 336.344 85.4799 336.253 85.394C336.14 85.3081 336.026 85.2222 335.868 85.1792C335.709 85.1363 335.528 85.0934 335.324 85.0934C335.12 85.0934 334.962 85.1148 334.803 85.1578C334.645 85.2007 334.531 85.2651 334.441 85.3296C334.35 85.4154 334.282 85.5013 334.237 85.6087C334.192 85.716 334.169 85.8234 334.169 85.9522C334.169 86.0596 334.192 86.167 334.237 86.2528C334.282 86.3387 334.373 86.4246 334.463 86.5105C334.577 86.5964 334.713 86.6608 334.871 86.7252C335.03 86.7896 335.234 86.8541 335.46 86.9185C335.777 87.0044 336.049 87.0902 336.298 87.1976C336.525 87.305 336.729 87.4123 336.865 87.5626C337 87.7129 337.136 87.8418 337.204 88.0135C337.272 88.1853 337.318 88.3571 337.318 88.5718C337.318 88.7865 337.272 88.9798 337.182 89.173C337.091 89.3663 336.955 89.4951 336.774 89.6239C336.593 89.7528 336.389 89.8387 336.162 89.9031C335.913 89.9675 335.641 90.0104 335.347 90.0104C335.166 90.0104 335.007 89.989 334.826 89.9675C334.645 89.946 334.486 89.8816 334.328 89.8387C334.169 89.7742 334.01 89.7098 333.875 89.6025C333.739 89.4951 333.625 89.4092 333.512 89.2804C333.399 89.1515 333.331 89.0227 333.286 88.8724C333.218 88.7221 333.195 88.5503 333.195 88.3786H333.942C333.942 88.5718 333.988 88.7221 334.056 88.8509C334.124 88.9798 334.237 89.0871 334.373 89.173C334.509 89.2589 334.645 89.3233 334.826 89.3663C334.984 89.4092 335.166 89.4307 335.347 89.4307C335.732 89.4307 336.049 89.3448 336.253 89.1945C336.457 89.0442 336.547 88.8295 336.547 88.5718Z" fill="white"/>
<path d="M337.318 96.7159H335.609V101.004H334.904V96.7159H333.195V96.1943H337.318V96.7159Z" fill="white"/>
<path d="M336.261 110.146H333.912V112.089H336.63V112.685H333.195V107.188H336.609V107.784H333.912V109.55H336.261V110.146Z" fill="white"/>
<path d="M333.946 123.769H336.63V124.366H333.195V118.869H333.946V123.769Z" fill="white"/>
</svg>
